<svg width="21" height="20" viewBox="0 0 21 20" fill="none" xmlns="http://www.w3.org/2000/svg">
<path d="M18.5766 10.2392C18.5449 10.3159 18.4992 10.385 18.4417 10.4425L12.6084 16.2758C12.4867 16.3975 12.3267 16.4591 12.1667 16.4591C12.0067 16.4591 11.8466 16.3983 11.725 16.2758C11.4808 16.0317 11.4808 15.6358 11.725 15.3916L16.4916 10.625H3C2.655 10.625 2.375 10.345 2.375 9.99998C2.375 9.65498 2.655 9.37498 3 9.37498H16.4908L11.7242 4.60834C11.48 4.36417 11.48 3.96831 11.7242 3.72414C11.9683 3.47997 12.3642 3.47997 12.6084 3.72414L18.4417 9.55747C18.4992 9.61497 18.5449 9.68405 18.5766 9.76072C18.6399 9.91405 18.6399 10.0859 18.5766 10.2392Z" fill="#26418E"/>
</svg>
