<svg width="64" height="64" viewBox="0 0 64 64" fill="none" xmlns="http://www.w3.org/2000/svg">
<g clip-path="url(#clip0_1125_164)">
<path d="M59.0928 54.3789L50.7153 39.9808C52.165 39.5386 53.7093 39.148 54.3509 38.0401C55.4203 36.194 53.5168 33.1655 54.0166 31.1868C54.5315 29.1502 57.571 27.388 57.571 25.3179C57.571 23.3011 54.4286 20.9449 53.9134 18.9203C53.4101 16.9419 55.3079 13.9102 54.2351 12.0663C53.1622 10.2223 49.5888 10.3738 48.1178 8.95834C46.6043 7.50172 46.609 3.93782 44.7835 2.96167C42.9505 1.98188 39.9715 3.96204 37.9364 3.49298C35.9244 3.02929 34.1269 0 32.0253 0C29.8926 0 26.5005 3.43626 25.9685 3.55992C23.9343 4.03277 20.9516 2.05746 19.1205 3.0414C17.2967 4.02084 17.3079 7.58508 15.7972 9.04412C14.3286 10.4622 10.7551 10.3172 9.6855 12.1634C8.61613 14.0091 10.5197 17.0369 10.02 19.0167C9.51895 21.0015 6.3736 23.0126 6.3736 25.3081C6.3736 27.3783 9.42071 29.135 9.93871 31.1705C10.4422 33.1489 8.54435 36.1803 9.61719 38.0249C10.2013 39.0289 11.5264 39.441 12.8499 39.8372C13.0043 39.8834 13.2964 40.0562 13.0986 40.3445L4.90574 54.4844C4.326 55.4848 4.79678 56.3423 5.95159 56.3909L11.6043 56.6266C12.7591 56.6752 14.2077 57.5144 14.8241 58.4921L17.8405 63.2784C18.4569 64.2561 19.4349 64.2378 20.0145 63.2376C20.0145 63.2376 28.4542 48.6669 28.4576 48.6628C28.6269 48.4649 28.7971 48.5055 28.8786 48.5747C29.802 49.361 31.0893 50.1453 32.1637 50.1453C33.2173 50.1453 34.193 49.407 35.158 48.5835C35.2366 48.5166 35.4277 48.3795 35.5674 48.6641C35.5697 48.6686 44 63.1596 44 63.1596C44.5811 64.1586 45.5593 64.1755 46.1738 63.1966L49.1817 58.4046C49.7964 57.4262 51.2435 56.5837 52.3983 56.5334L58.0504 56.2871C59.2047 56.2364 59.674 55.3777 59.0928 54.3789ZM41.3671 41.2723C35.1172 44.9083 27.6153 44.5186 21.8854 40.9044C13.4893 35.5264 10.7267 24.4013 15.774 15.6897C20.8789 6.8777 32.1007 3.76833 40.9921 8.61087C41.0388 8.6363 41.085 8.66259 41.1314 8.68853C41.1973 8.72502 41.263 8.76204 41.3285 8.79939C44.0716 10.3809 46.4502 12.6762 48.1535 15.6038C53.3591 24.5517 50.3149 36.0667 41.3671 41.2723Z" fill="#26418E"/>
<path d="M39.9377 11.4329C39.9118 11.4178 39.8855 11.4038 39.8596 11.3889C35.1099 8.64001 29.0561 8.43904 23.9825 11.3908C16.4535 15.7711 13.8915 25.4598 18.2717 32.9887C19.6083 35.2862 21.4399 37.1202 23.5531 38.4364C23.7333 38.5511 23.9157 38.6622 24.1003 38.7697C31.6375 43.1363 41.321 40.5568 45.6874 33.02C50.0536 25.4828 47.4749 15.7995 39.9377 11.4329ZM41.8233 23.7543L39.1842 26.3267C38.3668 27.1233 37.8559 28.6958 38.0491 29.8209L38.672 33.4531C38.8651 34.5781 38.1964 35.064 37.186 34.5328L33.9239 32.8178C32.9135 32.2867 31.2603 32.2867 30.2499 32.8178L26.9879 34.5328C25.9775 35.064 25.3087 34.5781 25.5018 33.4531L26.1247 29.8209C26.3177 28.6958 25.8068 27.1233 24.9895 26.3267L22.3505 23.7543C21.533 22.9577 21.7886 22.1714 22.9182 22.0071L26.5651 21.4772C27.6946 21.3131 29.0323 20.3412 29.5375 19.3177L31.1684 16.013C31.6736 14.9895 32.5003 14.9895 33.0054 16.013L34.6365 19.3177C35.1417 20.3412 36.4792 21.3131 37.6089 21.4772L41.2558 22.0071C42.3852 22.1714 42.6407 22.9577 41.8233 23.7543Z" fill="#26418E"/>
</g>
<defs>
<clipPath id="clip0_1125_164">
<rect width="64" height="64" fill="white"/>
</clipPath>
</defs>
</svg>
