<svg width="16" height="16" viewBox="0 0 16 16" fill="none" xmlns="http://www.w3.org/2000/svg">
<path d="M7.99998 0.833496C4.04798 0.833496 0.833313 4.04816 0.833313 8.00016C0.833313 11.9522 4.04798 15.1668 7.99998 15.1668C11.952 15.1668 15.1666 11.9522 15.1666 8.00016C15.1666 4.04816 11.952 0.833496 7.99998 0.833496ZM7.99998 14.1668C4.59931 14.1668 1.83331 11.4008 1.83331 8.00016C1.83331 4.5995 4.59931 1.8335 7.99998 1.8335C11.4006 1.8335 14.1666 4.5995 14.1666 8.00016C14.1666 11.4008 11.4006 14.1668 7.99998 14.1668ZM10.3533 9.64681C10.5487 9.84214 10.5487 10.1588 10.3533 10.3542C10.256 10.4515 10.128 10.5008 9.99998 10.5008C9.87198 10.5008 9.74396 10.4522 9.64663 10.3542L7.64663 8.35417C7.55263 8.26017 7.49998 8.13281 7.49998 8.00081V4.66748C7.49998 4.39148 7.72398 4.16748 7.99998 4.16748C8.27598 4.16748 8.49998 4.39148 8.49998 4.66748V7.79346L10.3533 9.64681Z" fill="#36404E"/>
</svg>
