<svg width="48" height="48" viewBox="0 0 48 48" fill="none" xmlns="http://www.w3.org/2000/svg">
<g clip-path="url(#clip0_1193_46)">
<path d="M48 23.9987C48 22.8576 47.3949 21.8178 46.3786 21.2148L43.7058 19.6423C44.5977 19.1128 45.4893 18.5829 46.3807 18.0526C47.395 17.4475 48 16.4077 48 15.2709C48 14.1341 47.3949 13.0943 46.3807 12.4881C43.0398 10.5011 31.7109 3.76879 26.1264 0.567341C24.8331 -0.175262 23.2606 -0.205023 21.8629 0.573784C21.8629 0.573784 6.67535 9.49443 1.62133 12.4871C0.605148 13.09 0 14.1298 0 15.2709C0 16.4077 0.605148 17.4475 1.61929 18.0537C2.51057 18.5837 3.40204 19.1134 4.29372 19.6428L1.62143 21.2148C0.605148 21.8178 0 22.8576 0 23.9987C0 25.1354 0.605148 26.1752 1.61929 26.7815C2.51057 27.3115 3.40204 27.8412 4.29372 28.3705L1.62143 29.9425C0.605148 30.5455 0 31.5854 0 32.7264C0 33.8632 0.605148 34.903 1.61929 35.5093C5.94246 38.08 16.5682 44.3883 21.8736 47.43C22.5234 47.8029 23.2607 47.9999 24.0001 47.9999C24.7394 47.9999 25.4767 47.8029 26.1287 47.4288C31.4319 44.3882 42.0576 38.08 46.3808 35.5081C47.3951 34.903 48.0001 33.8632 48.0001 32.7264C48.0001 31.5854 47.395 30.5455 46.3787 29.9425L43.7059 28.3701C44.5978 27.8406 45.4894 27.3107 46.3808 26.7804C47.395 26.1752 48 25.1354 48 23.9987ZM2.7358 16.1814C2.5696 16.0813 2.18179 15.7936 2.18179 15.2727C2.18179 14.7496 2.56746 14.4642 2.73365 14.3661C7.78122 11.3768 22.9475 2.46941 22.9453 2.47043C23.6399 2.07944 24.3984 2.09438 25.0419 2.46297C30.6115 5.65582 41.9297 12.3803 45.2642 14.3639C45.4304 14.4641 45.8182 14.7518 45.8182 15.2726C45.8182 15.7935 45.4304 16.0812 45.2642 16.1803C40.9475 18.7478 30.3345 25.0493 25.0441 28.0813C24.3878 28.4563 23.6101 28.4552 22.9581 28.0823C17.6655 25.0493 7.05253 18.7479 2.7358 16.1814ZM45.2663 31.8206C45.4325 31.9186 45.8182 32.2041 45.8182 32.7272C45.8182 33.2482 45.4304 33.5358 45.2642 33.6349C40.9475 36.2024 30.3345 42.5039 25.0441 45.5359C24.3878 45.9109 23.6101 45.9098 22.9581 45.5369C17.6655 42.5039 7.05253 36.2024 2.7358 33.6359C2.5696 33.5358 2.18179 33.2481 2.18179 32.7272C2.18179 32.2041 2.56746 31.9187 2.73365 31.8206L6.43582 29.6421C11.4398 32.6081 18.0407 36.5053 21.8736 38.7026C22.5234 39.0755 23.2607 39.2726 24.0001 39.2726C24.7394 39.2726 25.4767 39.0755 26.1287 38.7016C29.9599 36.505 36.5602 32.6084 41.564 29.642L45.2663 31.8206ZM45.2642 24.9077C40.9475 27.4751 30.3345 33.7766 25.0441 36.8086C24.3878 37.1837 23.6101 37.1825 22.9581 36.8097C17.6655 33.7765 7.05253 27.4751 2.7358 24.9087C2.5696 24.8086 2.18179 24.5209 2.18179 24C2.18179 23.4769 2.56746 23.1914 2.73365 23.0933L6.43582 20.9148C11.4398 23.8808 18.0407 27.778 21.8736 29.9754C22.5234 30.3483 23.2607 30.5453 24.0001 30.5453C24.7394 30.5453 25.4767 30.3483 26.1287 29.9744C29.9599 27.7777 36.5602 23.8811 41.564 20.9147L45.2665 23.0933C45.4326 23.1913 45.8183 23.4769 45.8183 24C45.8182 24.5209 45.4304 24.8086 45.2642 24.9077Z" fill="#36404E"/>
<path d="M24.564 11.3229C22.8082 11.3477 21.6492 10.1455 21.631 8.9718C21.6127 7.80015 22.7308 6.56756 24.4859 6.54283C26.2417 6.5181 27.4007 7.72022 27.4189 8.89396C27.4372 10.0656 26.3191 11.2982 24.564 11.3229ZM35.0933 17.758C33.3375 17.7827 32.1785 16.5806 32.1603 15.4068C32.142 14.2352 33.2601 13.0026 35.0152 12.9779C36.771 12.9531 37.9299 14.1552 37.9482 15.329C37.9665 16.5006 36.8484 17.7332 35.0933 17.758ZM23.9505 21.8345C22.1946 21.8592 21.0357 20.6571 21.0174 19.4833C20.9992 18.3117 22.1173 17.0791 23.8723 17.0544C25.6281 17.0296 26.7871 18.2318 26.8054 19.4055C26.8236 20.5771 25.7055 21.8097 23.9505 21.8345ZM13.6647 16.9427C11.9089 16.9674 10.75 15.7653 10.7317 14.5915C10.7134 13.4199 11.8315 12.1873 13.5866 12.1626C15.3424 12.1378 16.5014 13.3399 16.5197 14.5137C16.5379 15.6853 15.4198 16.9179 13.6647 16.9427Z" stroke="#36404E" stroke-width="2.5"/>
</g>
<defs>
<clipPath id="clip0_1193_46">
<rect width="48" height="48" fill="white"/>
</clipPath>
</defs>
</svg>
