<svg width="20" height="20" viewBox="0 0 20 20" fill="none" xmlns="http://www.w3.org/2000/svg">
<path d="M14.1641 12.5843C13.6414 12.0682 12.9888 12.0682 12.4694 12.5843C12.0732 12.9772 11.677 13.3701 11.2874 13.7696C11.1809 13.8795 11.091 13.9028 10.9611 13.8295C10.7048 13.6897 10.4318 13.5765 10.1854 13.4233C9.03673 12.7008 8.07452 11.7719 7.22218 10.7265C6.79934 10.2071 6.42311 9.65107 6.16009 9.02513C6.10682 8.89861 6.1168 8.81538 6.22002 8.71217C6.61622 8.32928 7.00244 7.9364 7.39198 7.54353C7.93468 6.9975 7.93468 6.35825 7.38865 5.80889C7.07901 5.49592 6.76938 5.18961 6.45974 4.87664C6.14011 4.55702 5.82381 4.23406 5.50086 3.91776C4.97813 3.40836 4.32556 3.40836 3.80617 3.92109C3.40663 4.31397 3.02375 4.71683 2.61755 5.10304C2.24133 5.4593 2.05155 5.89545 2.0116 6.40486C1.94834 7.23389 2.15143 8.01631 2.43776 8.77875C3.02375 10.3569 3.91604 11.7586 4.99811 13.0438C6.45974 14.7817 8.20437 16.1568 10.2453 17.149C11.1642 17.5951 12.1165 17.9381 13.1519 17.9947C13.8644 18.0346 14.4837 17.8548 14.9798 17.2988C15.3194 16.9193 15.7023 16.573 16.0619 16.2101C16.5946 15.6707 16.5979 15.0181 16.0685 14.4854C15.4359 13.8495 14.8 13.2169 14.1641 12.5843ZM13.5282 9.93074L14.7567 9.72099C14.5636 8.5923 14.0309 7.57016 13.2218 6.75778C12.3662 5.90211 11.2841 5.36274 10.0922 5.19627L9.91903 6.43149C10.8413 6.56134 11.6803 6.97752 12.3429 7.64008C12.9688 8.26602 13.3783 9.05843 13.5282 9.93074ZM15.4492 4.59031C14.0309 3.17197 12.2363 2.27634 10.2553 2L10.0822 3.23522C11.7935 3.47494 13.345 4.25071 14.5703 5.47261C15.7322 6.63459 16.4947 8.10288 16.771 9.71766L17.9996 9.5079C17.6766 7.63675 16.7943 5.93874 15.4492 4.59031Z" fill="#36404E" fill-opacity="0.5"/>
</svg>
