<svg width="24" height="25" viewBox="0 0 24 25" fill="none" xmlns="http://www.w3.org/2000/svg">
<g clip-path="url(#clip0_1288_161)">
<path d="M22.5262 17.888C22.4648 17.8392 18 14.621 16.7745 14.852C16.1895 14.9555 15.855 15.3545 15.1838 16.1532C15.0758 16.2822 14.8162 16.5912 14.6145 16.811C14.1903 16.6726 13.7765 16.5042 13.3762 16.307C11.3104 15.3012 9.64124 13.6321 8.6355 11.5662C8.43815 11.1661 8.26972 10.7522 8.1315 10.328C8.352 10.1255 8.661 9.86599 8.793 9.75499C9.588 9.08749 9.98775 8.75299 10.0912 8.16649C10.3035 6.95149 7.0875 2.45599 7.05375 2.41549C6.90784 2.20704 6.71741 2.03364 6.49625 1.90782C6.2751 1.782 6.02874 1.70691 5.775 1.68799C4.4715 1.68799 0.75 6.51574 0.75 7.32874C0.75 7.37599 0.81825 12.179 6.741 18.2037C12.7597 24.1197 17.562 24.188 17.6092 24.188C18.423 24.188 23.25 20.4665 23.25 19.163C23.2313 18.9101 23.1567 18.6646 23.0315 18.4441C22.9063 18.2236 22.7338 18.0337 22.5262 17.888Z" fill="white"/>
</g>
<defs>
<clipPath id="clip0_1288_161">
<rect width="24" height="24" fill="white" transform="translate(0 0.937988)"/>
</clipPath>
</defs>
</svg>
