<svg width="48" height="48" viewBox="0 0 48 48" fill="none" xmlns="http://www.w3.org/2000/svg">
<g clip-path="url(#clip0_1193_77)">
<path d="M41.3288 34.1942C42.7239 33.2617 43.6429 31.6858 43.6429 29.9017C43.6429 27.0441 41.2855 24.7196 38.3884 24.7196C35.4914 24.7196 33.134 27.0441 33.134 29.9017C33.134 31.6606 34.029 33.2152 35.3915 34.1524C33.9361 34.7922 32.6869 35.9013 31.8214 37.3529C30.7112 35.6202 29.114 34.2766 27.2451 33.5435C29.0656 32.4457 30.2854 30.4842 30.2854 28.2445C30.2854 24.8102 27.4263 22.0161 23.9122 22.0161C20.3981 22.0161 17.539 24.8102 17.539 28.2445C17.539 30.5121 18.7897 32.4952 20.6482 33.5845C18.8254 34.3266 17.2681 35.6531 16.1792 37.3529C15.3132 35.9013 14.0644 34.7922 12.609 34.1524C13.9715 33.2152 14.8665 31.6606 14.8665 29.9017C14.8665 27.0441 12.5091 24.7196 9.61206 24.7196C6.71503 24.7196 4.35761 27.0441 4.35761 29.9017C4.35761 31.6854 5.27658 33.2617 6.67168 34.1942C3.89116 35.4673 1.93555 38.4484 1.93555 41.9137V45.2407C1.93555 45.4461 2.01711 45.643 2.1623 45.7882C2.30749 45.9334 2.50441 46.0149 2.70974 46.0149H14.5127V47.2258C14.5127 47.4311 14.5943 47.628 14.7395 47.7732C14.8847 47.9184 15.0816 48 15.2869 48H32.7132C32.9186 48 33.1155 47.9184 33.2607 47.7732C33.4058 47.628 33.4874 47.4311 33.4874 47.2258V46.0149H45.2904C45.4957 46.0149 45.6926 45.9334 45.8378 45.7882C45.983 45.643 46.0646 45.4461 46.0646 45.2407V41.9137C46.0646 38.4484 44.109 35.4673 41.3288 34.1942ZM38.3884 26.268C40.4319 26.268 42.0945 27.898 42.0945 29.9017C42.0945 31.9053 40.4319 33.5353 38.3884 33.5353C36.345 33.5353 34.6824 31.9053 34.6824 29.9017C34.6824 27.898 36.345 26.268 38.3884 26.268ZM19.0874 28.2445C19.0874 25.6641 21.2517 23.5645 23.9122 23.5645C26.5727 23.5645 28.737 25.6641 28.737 28.2445C28.737 30.8253 26.5727 32.9249 23.9122 32.9249C21.2517 32.9249 19.0874 30.8253 19.0874 28.2445ZM9.61168 26.268C11.6552 26.268 13.3177 27.898 13.3177 29.9017C13.3177 31.9053 11.6552 33.5353 9.61168 33.5353C7.56819 33.5353 5.90561 31.9053 5.90561 29.9017C5.90561 27.898 7.56819 26.268 9.61168 26.268ZM14.5127 43.1086V44.4666H3.48393V41.9137C3.48393 38.1476 6.26484 35.0833 9.68251 35.0833C12.117 35.0833 14.2917 36.6302 15.3032 39.0453C14.7792 40.3358 14.5107 41.7158 14.5127 43.1086ZM31.939 46.4516H16.0611V43.1086C16.0611 38.3469 19.6224 34.4729 24.0001 34.4729C28.3777 34.4729 31.939 38.3469 31.939 43.1086V46.4516ZM44.5162 44.4666H33.4874V43.1086C33.4895 41.7158 33.2212 40.3358 32.6974 39.0453C33.7084 36.6302 35.8832 35.0833 38.318 35.0833C41.7357 35.0833 44.5166 38.1472 44.5166 41.9137L44.5162 44.4666ZM25.4226 16.0564H22.5775C22.3722 16.0564 22.1752 15.9748 22.03 15.8296C21.8849 15.6844 21.8033 15.4875 21.8033 15.2822V11.9744H18.6055C18.4002 11.9744 18.2032 11.8929 18.058 11.7477C17.9129 11.6025 17.8313 11.4056 17.8313 11.2002V8.29314C17.8313 8.08781 17.9129 7.89089 18.058 7.7457C18.2032 7.60051 18.4002 7.51895 18.6055 7.51895H21.8033V4.21121C21.8033 4.00588 21.8849 3.80896 22.03 3.66377C22.1752 3.51858 22.3722 3.43701 22.5775 3.43701H25.4226C25.628 3.43701 25.8249 3.51858 25.9701 3.66377C26.1153 3.80896 26.1968 4.00588 26.1968 4.21121V7.51895H29.3946C29.6 7.51895 29.7969 7.60051 29.9421 7.7457C30.0873 7.89089 30.1688 8.08781 30.1688 8.29314V11.2002C30.1688 11.4056 30.0873 11.6025 29.9421 11.7477C29.7969 11.8929 29.6 11.9744 29.3946 11.9744H26.1968V15.2822C26.1968 15.4875 26.1153 15.6844 25.9701 15.8296C25.8249 15.9748 25.628 16.0564 25.4226 16.0564ZM23.3517 14.508H24.6484V11.2002C24.6484 10.9949 24.73 10.798 24.8752 10.6528C25.0204 10.5076 25.2173 10.426 25.4226 10.426H28.6204V9.06733H25.4226C25.2173 9.06733 25.0204 8.98577 24.8752 8.84058C24.73 8.69539 24.6484 8.49847 24.6484 8.29314V4.9854H23.3517V8.29314C23.3517 8.49847 23.2701 8.69539 23.1249 8.84058C22.9797 8.98577 22.7828 9.06733 22.5775 9.06733H19.3797V10.426H22.5775C22.7828 10.426 22.9797 10.5076 23.1249 10.6528C23.2701 10.798 23.3517 10.9949 23.3517 11.2002V14.508Z" fill="#36404E"/>
<path d="M24.0001 19.493C18.6895 19.493 14.3691 15.1208 14.3691 9.74632C14.3691 4.37187 18.6895 0 24.0001 0C29.3107 0 33.6311 4.37226 33.6311 9.74671C33.6311 15.1212 29.3107 19.493 24.0001 19.493ZM24.0001 1.54839C19.5431 1.54839 15.9175 5.22619 15.9175 9.74671C15.9175 14.2672 19.5431 17.9446 24.0001 17.9446C28.4571 17.9446 32.0827 14.2668 32.0827 9.74632C32.0827 5.22581 28.4571 1.54839 24.0001 1.54839Z" fill="#36404E"/>
</g>
<defs>
<clipPath id="clip0_1193_77">
<rect width="48" height="48" fill="white"/>
</clipPath>
</defs>
</svg>
