<svg width="48" height="48" viewBox="0 0 48 48" fill="none" xmlns="http://www.w3.org/2000/svg">
<g clip-path="url(#clip0_1193_64)">
<path d="M42.5455 32.7272C41.178 32.7272 39.9415 33.2505 38.9831 34.0851L31.5097 28.3701C32.2637 27.0798 32.7273 25.5991 32.7273 23.9999C32.7273 22.4636 32.2939 21.0401 31.5939 19.7848L36.7172 16.0271C37.6856 16.9047 38.957 17.4545 40.3637 17.4545C43.3711 17.4545 45.8182 15.0074 45.8182 12C45.8182 8.99254 43.3711 6.54536 40.3637 6.54536C37.3563 6.54536 34.9092 8.99244 34.9092 11.9999C34.9092 12.8127 35.1 13.5776 35.4202 14.2714L30.3184 18.0135C28.7267 16.3344 26.4907 15.2727 24.0001 15.2727C23.3048 15.2727 22.6371 15.3754 21.9884 15.5297L20.732 12.178C22.6764 11.042 24.0001 8.95542 24.0001 6.54546C24.0001 2.93605 21.064 0 17.4546 0C13.8452 0 10.9091 2.93605 10.9091 6.54546C10.9091 10.1549 13.8452 13.0909 17.4546 13.0909C17.88 13.0909 18.2939 13.0433 18.697 12.9653L19.9526 16.3149C17.637 17.5403 15.9288 19.7474 15.4342 22.4033L10.8305 22.1331C10.4496 19.495 8.19635 17.4545 5.45452 17.4545C2.44708 17.4545 0 19.9016 0 22.909C0 25.9164 2.44708 28.3635 5.45452 28.3635C7.97441 28.3635 10.0802 26.6367 10.7035 24.3106L15.3316 24.5822C15.4815 26.803 16.4351 28.8004 17.9425 30.2593L13.8913 35.6613C12.9928 35.1966 11.9887 34.9089 10.9091 34.9089C7.29972 34.9089 4.36367 37.8449 4.36367 41.4543C4.36367 45.0637 7.29972 47.9998 10.9091 47.9998C14.5185 47.9998 17.4546 45.0637 17.4546 41.4543C17.4546 39.7108 16.759 38.1338 15.644 36.9595L19.7018 31.5487C20.9762 32.2774 22.4301 32.7271 24.0001 32.7271C26.4285 32.7271 28.6242 31.7262 30.2078 30.1201L37.6542 35.8143C37.3045 36.5333 37.091 37.3299 37.091 38.1816C37.091 41.189 39.5381 43.6361 42.5455 43.6361C45.5529 43.6361 48 41.189 48 38.1816C48 35.1742 45.5529 32.7272 42.5455 32.7272ZM40.3637 8.72714C42.1684 8.72714 43.6364 10.1952 43.6364 11.9999C43.6364 13.8046 42.1684 15.2726 40.3637 15.2726C38.559 15.2726 37.091 13.8046 37.091 11.9999C37.091 10.1952 38.559 8.72714 40.3637 8.72714ZM5.45452 26.1817C3.64981 26.1817 2.18179 24.7137 2.18179 22.909C2.18179 21.1043 3.64981 19.6363 5.45452 19.6363C7.25922 19.6363 8.72725 21.1043 8.72725 22.909C8.72725 24.7137 7.25922 26.1817 5.45452 26.1817ZM10.9091 45.8181C8.50245 45.8181 6.54546 43.8611 6.54546 41.4544C6.54546 39.0478 8.50245 37.0908 10.9091 37.0908C13.3158 37.0908 15.2728 39.0478 15.2728 41.4544C15.2728 43.8611 13.3157 45.8181 10.9091 45.8181ZM17.4546 10.909C15.0479 10.909 13.0909 8.95194 13.0909 6.54536C13.0909 4.13878 15.0479 2.18168 17.4546 2.18168C19.8613 2.18168 21.8182 4.13878 21.8182 6.54536C21.8182 8.95194 19.8612 10.909 17.4546 10.909ZM24.0001 30.5454C20.3906 30.5454 17.4546 27.6094 17.4546 23.9999C17.4546 20.3905 20.3906 17.4545 24.0001 17.4545C27.6095 17.4545 30.5455 20.3905 30.5455 23.9999C30.5455 27.6094 27.6094 30.5454 24.0001 30.5454ZM42.5455 41.4544C40.7408 41.4544 39.2728 39.9864 39.2728 38.1817C39.2728 36.377 40.7408 34.909 42.5455 34.909C44.3502 34.909 45.8182 36.377 45.8182 38.1817C45.8182 39.9864 44.3502 41.4544 42.5455 41.4544Z" fill="#36404E"/>
</g>
<defs>
<clipPath id="clip0_1193_64">
<rect width="48" height="48" fill="white"/>
</clipPath>
</defs>
</svg>
