<svg width="32" height="32" viewBox="0 0 32 32" fill="none" xmlns="http://www.w3.org/2000/svg">
<path d="M31.7333 9.5998C31.7333 9.5998 31.4667 7.33314 30.4 6.3998C29.2 5.06647 27.8667 5.06647 27.2 5.06647C22.6667 4.7998 16 4.7998 16 4.7998C16 4.7998 9.33333 4.7998 4.8 5.06647C4.13333 5.1998 2.8 5.19981 1.6 6.3998C0.666667 7.33314 0.266667 9.5998 0.266667 9.5998C0.266667 9.5998 0 12.1331 0 14.7998V17.1998C0 19.7331 0.266667 22.3998 0.266667 22.3998C0.266667 22.3998 0.533333 24.6665 1.6 25.5998C2.8 26.9331 4.4 26.7998 5.06667 26.9331C7.6 27.1998 16 27.1998 16 27.1998C16 27.1998 22.6667 27.1998 27.2 26.7998C27.8667 26.6665 29.2 26.6665 30.4 25.4665C31.3333 24.5331 31.7333 22.2665 31.7333 22.2665C31.7333 22.2665 32 19.7331 32 17.0665V14.6665C32 12.1331 31.7333 9.5998 31.7333 9.5998ZM12.6667 20.1331V11.1998L21.3333 15.7331L12.6667 20.1331Z" fill="#36404E"/>
</svg>
