<svg width="810" height="142" viewBox="0 0 810 142" fill="none" xmlns="http://www.w3.org/2000/svg">
<g clip-path="url(#clip0_1339_1352)">
<rect x="0.5" width="809" height="142" rx="8" fill="white"/>
<mask id="path-3-inside-1_1339_1352" fill="white">
<path d="M0.5 0H59.5V142H0.5V0Z"/>
</mask>
<path d="M58.5 0V142H60.5V0H58.5Z" fill="#EBEBEB" mask="url(#path-3-inside-1_1339_1352)"/>
<mask id="path-5-inside-2_1339_1352" fill="white">
<path d="M0.5 0H59.5V34H0.5V0Z"/>
</mask>
<path d="M0.5 0H59.5V34H0.5V0Z" fill="#36404E" fill-opacity="0.06"/>
<path d="M59.5 33H0.5V35H59.5V33Z" fill="#EBEBEB" mask="url(#path-5-inside-2_1339_1352)"/>
<path d="M25.0666 12.362L23.6946 13.566C23.1486 12.992 22.1966 12.74 21.4266 12.74C20.4606 12.74 19.6766 13.146 19.6766 13.818C19.6766 14.714 20.5306 14.882 21.7906 14.994C23.7226 15.162 25.5566 15.904 25.5566 18.172C25.5566 20.356 23.5406 21.308 21.4266 21.322C19.7326 21.336 17.9686 20.678 17.1426 19.306L18.4446 17.948C19.2006 18.914 20.4466 19.334 21.4406 19.334C22.6026 19.334 23.4006 18.872 23.4006 18.172C23.4146 17.346 22.7566 16.968 21.4266 16.856C19.3546 16.66 17.5066 16.142 17.5346 13.832C17.5486 11.886 19.3966 10.85 21.4126 10.85C22.9246 10.85 24.0586 11.186 25.0666 12.362ZM29.1868 21V13.146H26.2048V11.2C29.0608 11.2 31.4688 11.2 34.3388 11.2V13.146H31.3568V21H29.1868ZM37.8001 21V13.146H34.8181V11.2C37.6741 11.2 40.0821 11.2 42.9521 11.2V13.146H39.9701V21H37.8001Z" fill="#36404E" fill-opacity="0.8"/>
<mask id="path-8-inside-3_1339_1352" fill="white">
<path d="M0.5 34H59.5V70H0.5V34Z"/>
</mask>
<path d="M59.5 69H0.5V71H59.5V69Z" fill="#EBEBEB" mask="url(#path-8-inside-3_1339_1352)"/>
<path d="M27.7749 54.978H29.5949V47.726L27.8729 48.188V47.068L30.8129 46.2V54.978H32.5909V56H27.7749V54.978Z" fill="#36404E"/>
<mask id="path-11-inside-4_1339_1352" fill="white">
<path d="M0.5 70H59.5V106H0.5V70Z"/>
</mask>
<path d="M59.5 105H0.5V107H59.5V105Z" fill="#EBEBEB" mask="url(#path-11-inside-4_1339_1352)"/>
<path d="M27.4532 84.916H26.2352C26.3192 82.732 28.3072 82.088 30.1132 82.088C31.9332 82.088 33.8932 82.83 33.8932 85.014C33.8932 87.24 31.9472 87.94 30.0572 87.94C28.9092 87.954 27.3972 88.234 27.3972 89.634V90.838H33.8512V92H26.1652V89.634C26.1652 87.422 28.1812 86.806 30.0432 86.806C31.0792 86.806 32.6892 86.442 32.6892 85.028C32.6892 83.6 31.3592 83.18 30.1132 83.152C28.9092 83.152 27.4672 83.572 27.4532 84.916Z" fill="#36404E"/>
<mask id="path-14-inside-5_1339_1352" fill="white">
<path d="M0.5 106H59.5V142H0.5V106Z"/>
</mask>
<path d="M59.5 141H0.5V143H59.5V141Z" fill="#EBEBEB" mask="url(#path-14-inside-5_1339_1352)"/>
<path d="M26.2277 120.748L26.1997 120.734C26.2137 118.662 28.2577 118.046 29.9797 118.046C32.0937 118.046 33.6897 119.082 33.7037 120.818C33.7037 121.826 32.9757 122.694 31.9537 122.932C33.0177 123.198 33.8997 124.094 33.8997 125.186C33.8997 127.118 32.1637 128.112 29.9657 128.112C28.2017 128.112 26.0597 127.496 26.0597 125.326H27.2777C27.2917 126.796 28.9437 126.992 29.9937 126.992C31.5477 126.992 32.6817 126.362 32.6817 125.228C32.6817 124.402 31.9397 123.478 30.0497 123.478H28.4677V122.456H29.9657C31.4777 122.456 32.4857 121.756 32.4997 120.832C32.5137 120.02 31.7717 119.166 29.9937 119.166C28.9437 119.166 27.4317 119.432 27.4317 120.748H26.2277Z" fill="#36404E"/>
<mask id="path-17-inside-6_1339_1352" fill="white">
<path d="M59.5 0H389.5V142H59.5V0Z"/>
</mask>
<path d="M388.5 0V142H390.5V0H388.5Z" fill="#EBEBEB" mask="url(#path-17-inside-6_1339_1352)"/>
<mask id="path-19-inside-7_1339_1352" fill="white">
<path d="M59.5 0H389.5V34H59.5V0Z"/>
</mask>
<path d="M59.5 0H389.5V34H59.5V0Z" fill="#36404E" fill-opacity="0.06"/>
<path d="M389.5 33H59.5V35H389.5V33Z" fill="#EBEBEB" mask="url(#path-19-inside-7_1339_1352)"/>
<path d="M74.776 21H72.592V11.214H79.732V13.216H74.776V15.54H79.424V17.486H74.776V21ZM81.3557 11.2H85.3737C88.7477 11.2 90.2457 13.468 90.2457 16.03C90.2457 18.592 88.8037 21 85.3737 21C84.1417 21 82.5877 21 81.3557 21V11.2ZM83.5117 13.174V18.984H85.3737C87.5017 18.984 88.0897 17.416 88.0897 16.002C88.0897 14.588 87.4177 13.174 85.3737 13.174H83.5117ZM94.0667 21H91.8967V11.2H94.0667V21Z" fill="#36404E" fill-opacity="0.8"/>
<mask id="path-22-inside-8_1339_1352" fill="white">
<path d="M59.5 34H389.5V70H59.5V34Z"/>
</mask>
<path d="M389.5 69H59.5V71H389.5V69Z" fill="#EBEBEB" mask="url(#path-22-inside-8_1339_1352)"/>
<path d="M71.78 46.2H73.138L76.484 54.572L79.858 46.2H81.202L77.156 56.028H75.84L71.78 46.2ZM88.7828 45.108V45.136L87.5088 46.676H86.4588V46.606L87.3688 45.108H88.7828ZM81.1528 52.556C81.1528 50.414 82.6788 48.93 84.7368 48.93C86.8508 48.93 88.3348 50.414 88.3348 52.556C88.3348 54.656 86.8228 56.126 84.7368 56.126C82.6648 56.126 81.1528 54.656 81.1528 52.556ZM87.2008 52.556C87.2008 51.016 86.1368 49.98 84.7508 49.98C83.3368 49.98 82.3008 51.016 82.3008 52.556C82.3008 54.012 83.3228 55.048 84.7368 55.048C86.1648 55.048 87.1868 54.012 87.2008 52.556ZM82.4408 48.006L84.3868 46.116H85.1148L87.0608 48.006V48.104H85.8708L84.7508 47.026L83.6308 48.104H82.4408V48.006ZM89.9133 49.084V49.07H90.9633L91.0193 50.176C91.6213 49.35 92.4613 48.972 93.3853 48.972C95.1353 48.972 96.4233 50.148 96.4233 52.178V56H95.2753V52.192C95.2753 50.862 94.4913 50.036 93.1753 50.036C91.9153 50.05 91.0473 51.044 91.0473 52.29V56H89.9133V49.084ZM103.699 47.068V49.098H105.841V50.078H103.685V53.732C103.685 54.544 103.951 55.062 104.777 55.062C105.085 55.062 105.435 54.964 105.743 54.81L106.079 55.762C105.617 55.972 105.197 56.084 104.735 56.098C103.251 56.126 102.551 55.258 102.551 53.732V50.078H101.165V49.098H102.551V47.194L103.699 47.068ZM108.452 46.2V46.214V50.232C109.04 49.322 109.964 49.014 110.846 49C112.792 49 113.744 50.288 113.744 52.192V56H112.61V52.206C112.61 50.848 111.91 50.078 110.65 50.078C109.39 50.078 108.466 51.072 108.466 52.332V56H107.318V46.2H108.452ZM117.825 58.394C117.825 57.232 119.575 57.232 119.575 58.408C119.575 59.556 117.825 59.556 117.825 58.394ZM122.627 47.964H123.677C123.635 49.252 123.019 49.756 122.165 49.91V56H121.115L121.059 54.894C120.443 55.734 119.617 56.098 118.651 56.112C116.887 56.112 115.641 54.922 115.641 52.906V49.084H116.789V52.892C116.789 54.222 117.573 55.048 118.889 55.048C120.149 55.034 121.017 54.04 121.017 52.794V49.084H122.011C122.375 48.958 122.627 48.65 122.627 47.964ZM130.039 55.076L130.025 55.062C129.283 55.804 128.401 56.126 127.449 56.126C125.475 56.126 123.837 54.852 123.837 52.542C123.837 50.232 125.447 48.958 127.449 48.958C128.387 48.958 129.227 49.28 129.955 49.994L129.227 50.75C128.737 50.274 128.093 50.05 127.477 50.05C126.105 50.05 124.999 50.988 124.999 52.542C124.999 54.152 126.119 55.034 127.463 55.034C128.121 55.034 128.779 54.81 129.269 54.306L130.039 55.076ZM136.205 46.2V46.214V50.232C136.793 49.322 137.717 49.014 138.599 49C140.545 49 141.497 50.288 141.497 52.192V56H140.363V52.206C140.363 50.848 139.663 50.078 138.403 50.078C137.143 50.078 136.219 51.072 136.219 52.332V56H135.071V46.2H136.205ZM143.493 49.056H144.641V56H143.493V49.056ZM143.199 46.704C143.199 47.866 144.949 47.866 144.949 46.718C144.949 45.542 143.199 45.542 143.199 46.704ZM149.043 58.394C149.043 57.232 150.793 57.232 150.793 58.408C150.793 59.556 149.043 59.556 149.043 58.394ZM152.949 54.894H152.935C152.235 55.72 151.031 56.126 149.953 56.126C147.811 56.126 146.313 54.712 146.313 52.514C146.313 50.428 147.811 48.93 149.897 48.93C152.011 48.93 153.621 50.232 153.355 52.99H147.503C147.629 54.264 148.651 55.062 149.981 55.062C150.765 55.062 151.717 54.754 152.179 54.194L152.949 54.894ZM152.263 52.024V52.038C152.207 50.694 151.283 49.966 149.925 49.966C148.721 49.966 147.699 50.694 147.503 52.024H152.263ZM147.671 48.006L149.617 46.116H150.345L152.291 48.006V48.104H151.101L149.981 47.026L148.861 48.104H147.671V48.006ZM154.95 49.084V49.07H156L156.056 50.176C156.658 49.35 157.498 48.972 158.422 48.972C160.172 48.972 161.46 50.148 161.46 52.178V56H160.312V52.192C160.312 50.862 159.528 50.036 158.212 50.036C156.952 50.05 156.084 51.044 156.084 52.29V56H154.95V49.084Z" fill="#36404E"/>
<mask id="path-25-inside-9_1339_1352" fill="white">
<path d="M59.5 70H389.5V106H59.5V70Z"/>
</mask>
<path d="M389.5 105H59.5V107H389.5V105Z" fill="#EBEBEB" mask="url(#path-25-inside-9_1339_1352)"/>
<path d="M71.78 82.2H73.138L76.484 90.572L79.858 82.2H81.202L77.156 92.028H75.84L71.78 82.2ZM88.7828 81.108V81.136L87.5088 82.676H86.4588V82.606L87.3688 81.108H88.7828ZM81.1528 88.556C81.1528 86.414 82.6788 84.93 84.7368 84.93C86.8508 84.93 88.3348 86.414 88.3348 88.556C88.3348 90.656 86.8228 92.126 84.7368 92.126C82.6648 92.126 81.1528 90.656 81.1528 88.556ZM87.2008 88.556C87.2008 87.016 86.1368 85.98 84.7508 85.98C83.3368 85.98 82.3008 87.016 82.3008 88.556C82.3008 90.012 83.3228 91.048 84.7368 91.048C86.1648 91.048 87.1868 90.012 87.2008 88.556ZM82.4408 84.006L84.3868 82.116H85.1148L87.0608 84.006V84.104H85.8708L84.7508 83.026L83.6308 84.104H82.4408V84.006ZM89.9133 85.084V85.07H90.9633L91.0193 86.176C91.6213 85.35 92.4613 84.972 93.3853 84.972C95.1353 84.972 96.4233 86.148 96.4233 88.178V92H95.2753V88.192C95.2753 86.862 94.4913 86.036 93.1753 86.036C91.9153 86.05 91.0473 87.044 91.0473 88.29V92H89.9133V85.084ZM108.803 82.2L108.817 82.186V83.068H109.783V84.006H108.817V91.986H107.739L107.683 90.726C107.123 91.678 106.115 92.126 105.093 92.126C103.119 92.126 101.593 90.824 101.593 88.542C101.593 86.218 103.119 84.958 105.079 84.958C106.059 84.958 107.179 85.406 107.669 86.344V84.02H105.527V83.082H107.669V82.2H108.803ZM105.163 86.022H105.177C103.833 86.022 102.741 86.904 102.741 88.528C102.741 90.124 103.833 91.034 105.177 91.034C106.549 91.034 107.627 90.026 107.627 88.514C107.627 87.03 106.535 86.022 105.163 86.022ZM115.813 82.228H116.695C116.751 83.446 115.645 84.02 114.539 84.02C113.419 84.02 112.411 83.432 112.467 82.228H113.363C113.363 82.816 113.769 83.166 114.567 83.166C115.337 83.166 115.813 82.816 115.813 82.228ZM116.625 92L116.597 92.028L116.569 90.768C116.023 91.72 114.973 92.168 114.021 92.168C112.033 92.168 110.479 90.796 110.479 88.542C110.479 86.302 112.061 84.958 114.035 84.972C115.071 84.972 116.093 85.448 116.597 86.344L116.611 85.084H117.731V92H116.625ZM114.091 86.05L114.077 86.064C112.705 86.064 111.599 87.044 111.599 88.584C111.599 90.124 112.705 91.118 114.077 91.118C117.409 91.118 117.409 86.05 114.091 86.05ZM119.827 85.084V85.07H120.877L120.933 86.176C121.535 85.35 122.375 84.972 123.299 84.972C125.049 84.972 126.337 86.148 126.337 88.178V92H125.189V88.192C125.189 86.862 124.405 86.036 123.089 86.036C121.829 86.05 120.961 87.044 120.961 88.29V92H119.827V85.084ZM129.115 93.162C129.115 94.506 130.305 95.052 131.565 95.066C132.755 95.066 134.001 94.632 134.001 93.428C134.001 92.308 132.867 91.762 131.579 91.762C129.409 91.762 127.925 90.502 127.925 88.346C127.925 86.064 129.801 84.916 131.579 84.916C132.209 84.916 133.035 85.084 133.539 85.434L134.281 84.538L135.093 85.182L134.309 86.106C134.855 86.722 135.205 87.338 135.205 88.346C135.205 89.522 134.603 90.726 133.259 91.16C134.603 91.552 135.163 92.42 135.163 93.414C135.163 95.206 133.385 96.116 131.551 96.116C129.465 96.116 127.967 95.024 128.009 93.162H129.115ZM129.059 88.346C129.087 89.928 130.207 90.754 131.593 90.754C133.063 90.754 134.085 89.69 134.085 88.36C134.085 86.778 132.881 85.966 131.579 85.966C130.347 85.966 129.059 86.736 129.059 88.346ZM141.62 82.2V87.996L144.462 85.084H145.89V85.154L142.698 88.346L146.282 91.916V92H144.882L141.62 88.738V92H140.486V82.2H141.62ZM149.517 83.908V83.978H150.539L151.911 82.228V82.186H150.525L149.517 83.908ZM152.485 85.084H153.745L149.377 95.262H148.131L149.573 91.902L146.801 85.084H148.103L149.461 88.682L150.203 90.656L150.959 88.696L152.485 85.084Z" fill="#36404E"/>
<mask id="path-28-inside-10_1339_1352" fill="white">
<path d="M59.5 106H389.5V142H59.5V106Z"/>
</mask>
<path d="M389.5 141H59.5V143H389.5V141Z" fill="#EBEBEB" mask="url(#path-28-inside-10_1339_1352)"/>
<path d="M72.802 118.2V118.186H76.372C79.704 118.186 81.3 120.566 81.3 122.988C81.3 125.494 79.802 128 76.372 128H72.802V118.2ZM76.372 126.782C78.976 126.782 80.082 124.85 80.082 122.974C80.082 121.154 78.878 119.362 76.372 119.362H74.02V126.782H76.372ZM85.0676 130.394C85.0676 129.232 86.8176 129.232 86.8176 130.408C86.8176 131.556 85.0676 131.556 85.0676 130.394ZM89.8696 119.964H90.9196C90.8776 121.252 90.2616 121.756 89.4076 121.91V128H88.3576L88.3016 126.894C87.6856 127.734 86.8596 128.098 85.8936 128.112C84.1296 128.112 82.8836 126.922 82.8836 124.906V121.084H84.0316V124.892C84.0316 126.222 84.8156 127.048 86.1316 127.048C87.3916 127.034 88.2596 126.04 88.2596 124.794V121.084H89.2536C89.6176 120.958 89.8696 120.65 89.8696 119.964ZM101.899 128H100.793L100.765 126.74C100.219 127.692 99.1689 128.14 98.2029 128.14C96.2149 128.154 94.6609 126.782 94.6609 124.528C94.6609 122.288 96.2429 120.944 98.2169 120.944C99.2529 120.944 100.275 121.42 100.765 122.316L100.779 121.056H101.899V127.972V128ZM98.2869 121.994C96.9149 121.994 95.8089 122.974 95.8089 124.514C95.8089 126.054 96.9149 127.048 98.2869 127.048C101.605 127.048 101.605 121.98 98.2729 121.98L98.2869 121.994ZM98.0909 119.894V119.964H99.1409L100.541 118.158V118.116H99.1409L98.0909 119.894ZM103.995 121.084V121.07H105.045L105.101 122.176C105.703 121.35 106.543 120.972 107.467 120.972C109.217 120.972 110.505 122.148 110.505 124.178V128H109.357V124.192C109.357 122.862 108.573 122.036 107.257 122.036C105.997 122.05 105.129 123.044 105.129 124.29V128H103.995V121.084ZM121.863 127.076L121.849 127.062C121.107 127.804 120.225 128.126 119.273 128.126C117.299 128.126 115.661 126.852 115.661 124.542C115.661 122.232 117.271 120.958 119.273 120.958C120.211 120.958 121.051 121.28 121.779 121.994L121.051 122.75C120.561 122.274 119.917 122.05 119.301 122.05C117.929 122.05 116.823 122.988 116.823 124.542C116.823 126.152 117.943 127.034 119.287 127.034C119.945 127.034 120.603 126.81 121.093 126.306L121.863 127.076ZM130.905 117.108V117.136L129.631 118.676H128.581V118.606L129.491 117.108H130.905ZM128.875 128L128.847 128.028L128.819 126.768C128.273 127.72 127.223 128.168 126.271 128.168C124.283 128.168 122.729 126.796 122.729 124.542C122.729 122.302 124.311 120.958 126.285 120.972C127.321 120.972 128.343 121.448 128.847 122.344L128.861 121.084H129.981V128H128.875ZM126.341 122.05L126.327 122.064C124.955 122.064 123.849 123.044 123.849 124.584C123.849 126.124 124.955 127.118 126.327 127.118C129.659 127.118 129.659 122.05 126.341 122.05ZM124.563 120.006L126.509 118.116H127.237L129.183 120.006V120.104H127.993L126.873 119.026L125.753 120.104H124.563V120.006ZM132.077 131.262V121.112H133.169L133.225 122.442C133.771 121.518 134.793 120.986 135.885 120.986C137.873 121.028 139.329 122.428 139.329 124.556C139.329 126.74 137.887 128.154 135.815 128.154C134.835 128.154 133.743 127.734 133.197 126.754V131.262H132.077ZM135.745 127.076C137.131 127.076 138.181 126.138 138.181 124.584C138.181 123.03 137.159 122.106 135.745 122.106C134.303 122.106 133.323 123.17 133.323 124.584C133.323 125.998 134.345 127.062 135.745 127.076ZM144.573 121.084L144.587 121.098H145.651L145.721 122.106C146.141 121.294 146.981 120.972 147.765 120.972C148.717 120.972 149.697 121.378 150.089 122.484C150.593 121.42 151.545 120.972 152.525 120.972C154.345 120.972 155.437 122.162 155.437 124.052V128H154.289V124.052C154.289 122.918 153.631 122.05 152.497 122.05C151.363 122.05 150.607 122.946 150.607 124.08V128H149.459V124.08C149.459 122.946 148.745 122.05 147.597 122.05C146.463 122.05 145.721 122.946 145.721 124.08V128H144.573V121.084ZM159.916 119.992V119.922L160.938 118.2H162.338V118.242L160.952 119.992H159.916ZM157.004 124.556C157.004 122.414 158.53 120.93 160.588 120.93C161.008 120.93 161.414 121 161.778 121.112C162.002 121.14 162.184 121.154 162.212 121.154C162.842 121.168 163.458 121.028 163.458 119.964H164.508C164.466 121.182 163.906 121.7 163.122 121.882C163.794 122.526 164.186 123.45 164.186 124.556C164.186 126.656 162.674 128.126 160.588 128.126C158.516 128.126 157.004 126.656 157.004 124.556ZM163.052 124.556C163.052 123.016 161.988 121.98 160.602 121.98C159.188 121.98 158.152 123.016 158.152 124.556C158.152 126.012 159.174 127.048 160.588 127.048C162.016 127.048 163.038 126.012 163.052 124.556ZM165.833 121.056H166.981V128H165.833V121.056ZM165.539 118.704C165.539 119.866 167.289 119.866 167.289 118.718C167.289 117.542 165.539 117.542 165.539 118.704Z" fill="#36404E"/>
<mask id="path-31-inside-11_1339_1352" fill="white">
<path d="M389.5 0H529.5V142H389.5V0Z"/>
</mask>
<path d="M528.5 0V142H530.5V0H528.5Z" fill="#EBEBEB" mask="url(#path-31-inside-11_1339_1352)"/>
<mask id="path-33-inside-12_1339_1352" fill="white">
<path d="M389.5 0H529.5V34H389.5V0Z"/>
</mask>
<path d="M389.5 0H529.5V34H389.5V0Z" fill="#36404E" fill-opacity="0.06"/>
<path d="M529.5 33H389.5V35H529.5V33Z" fill="#EBEBEB" mask="url(#path-33-inside-12_1339_1352)"/>
<path d="M401.808 16.968V15.204H402.676V11.2H406.694C410.068 11.2 411.524 13.636 411.566 16.072C411.608 18.536 410.124 21 406.694 21H402.676V16.968H401.808ZM404.79 16.968V18.984H406.694C408.71 18.984 409.452 17.486 409.41 16.044C409.368 14.672 408.612 13.216 406.694 13.216H404.79V15.204H406.778V16.968H404.79ZM416.269 21.154C413.931 21.154 412.489 19.642 412.489 17.556C412.489 15.47 413.973 13.93 416.269 13.93C416.759 13.93 417.221 14 417.627 14.14C418.285 14.168 418.929 14.084 418.929 12.992H420.609C420.567 14.21 420.091 14.868 419.209 15.162C419.755 15.792 420.063 16.618 420.063 17.556C420.063 19.642 418.621 21.154 416.269 21.154ZM416.269 19.362C417.501 19.362 418.019 18.466 418.019 17.556C418.019 16.688 417.487 15.736 416.269 15.736C415.065 15.736 414.533 16.688 414.533 17.556C414.533 18.424 415.051 19.362 416.269 19.362ZM428.386 21H426.356V17.346C426.356 16.282 425.894 15.736 424.928 15.736C423.99 15.722 423.36 16.534 423.36 17.43V21H421.372V14.084H423.192L423.262 14.966C423.878 14.168 424.662 13.902 425.502 13.916C427.056 13.916 428.386 14.644 428.386 17.332V21ZM435.416 16.618L436.228 18.9L437.04 16.618L438.034 14.084H440.302L437.334 21.042H435.122L432.154 14.084H434.422L435.416 16.618ZM443.225 14.07H441.209V21H443.225V14.07ZM440.999 12.11C440.999 10.598 443.421 10.598 443.421 12.11C443.421 13.622 440.999 13.622 440.999 12.11ZM441.013 23.408C441.013 21.896 443.435 21.896 443.435 23.408C443.435 24.92 441.013 24.92 441.013 23.408ZM448.705 12.418L450.721 12.194V14.126H452.471V15.806H450.707V18.41C450.707 19.138 451.113 19.334 451.491 19.334C451.729 19.334 452.107 19.278 452.331 19.166L452.793 20.846C452.289 21.042 451.883 21.126 451.337 21.154C449.839 21.224 448.705 20.566 448.705 18.41V15.806H447.473V14.126H448.705V12.418ZM453.842 21V14.084H455.872V21H453.842ZM456.866 11.004H454.682L453.94 12.866V12.964H455.578L456.866 11.088V11.004ZM464.589 21H462.559V17.346C462.559 16.282 462.097 15.736 461.131 15.736C460.193 15.722 459.563 16.534 459.563 17.43V21H457.575V14.084H459.395L459.465 14.966C460.081 14.168 460.865 13.902 461.705 13.916C463.259 13.916 464.589 14.644 464.589 17.332V21ZM466.202 11.2H468.232V14.938C468.806 14.196 469.632 13.972 470.332 13.972C471.956 13.972 473.09 14.826 473.09 17.29V21H471.074V17.304C471.074 16.338 470.556 15.806 469.758 15.806C468.918 15.806 468.218 16.394 468.218 17.5V21H466.202V11.2Z" fill="#36404E" fill-opacity="0.8"/>
<mask id="path-36-inside-13_1339_1352" fill="white">
<path d="M389.5 34H529.5V70H389.5V34Z"/>
</mask>
<path d="M529.5 69H389.5V71H529.5V69Z" fill="#EBEBEB" mask="url(#path-36-inside-13_1339_1352)"/>
<path d="M405.084 47.292H401.738V46.2H409.634V47.292H406.288V56H405.084V47.292ZM410.491 49.084L410.505 49.07L410.589 50.106C411.065 49.21 411.919 48.958 412.717 48.958C413.319 48.944 413.907 49.154 414.327 49.476L413.809 50.456C413.445 50.204 413.081 50.078 412.605 50.078C411.499 50.092 410.575 50.876 410.575 52.15V56H409.427V49.084H410.491ZM415.415 49.056H416.563V56H415.415V49.056ZM415.121 46.704C415.121 47.866 416.871 47.866 416.871 46.718C416.871 45.542 415.121 45.542 415.121 46.704ZM420.965 58.394C420.965 57.232 422.715 57.232 422.715 58.408C422.715 59.556 420.965 59.556 420.965 58.394ZM424.871 54.894H424.857C424.157 55.72 422.953 56.126 421.875 56.126C419.733 56.126 418.235 54.712 418.235 52.514C418.235 50.428 419.733 48.93 421.819 48.93C423.933 48.93 425.543 50.232 425.277 52.99H419.425C419.551 54.264 420.573 55.062 421.903 55.062C422.687 55.062 423.639 54.754 424.101 54.194L424.871 54.894ZM424.185 52.024V52.038C424.129 50.694 423.205 49.966 421.847 49.966C420.643 49.966 419.621 50.694 419.425 52.024H424.185ZM419.593 48.006L421.539 46.116H422.267L424.213 48.006V48.104H423.023L421.903 47.026L420.783 48.104H419.593V48.006ZM432.234 56H432.248L432.192 54.894C431.576 55.734 430.75 56.098 429.784 56.112C428.02 56.112 426.774 54.922 426.774 52.906V49.084H427.922V52.892C427.922 54.222 428.706 55.048 430.022 55.048C431.282 55.034 432.15 54.04 432.15 52.794V49.084H433.298V56H432.234ZM447.106 46.2L447.12 46.214V52.094C447.12 54.81 445.286 56.182 443.144 56.182C441.058 56.182 439.126 54.838 439.126 52.094V46.214H440.33V52.094C440.33 54.04 441.632 55.062 443.144 55.062C444.656 55.062 445.916 53.998 445.916 52.08V46.2H447.106ZM455.761 48.342C455.229 47.488 454.095 47.096 453.003 47.082C451.757 47.082 450.427 47.572 450.427 48.762C450.427 49.826 451.645 50.134 453.087 50.372C455.047 50.68 456.979 51.072 456.979 53.284C456.965 55.482 454.865 56.196 452.989 56.196C451.253 56.196 449.601 55.566 448.845 53.928L449.853 53.34C450.483 54.502 451.799 55.062 453.003 55.062C454.193 55.062 455.775 54.684 455.775 53.242C455.789 52.024 454.417 51.674 452.947 51.45C451.057 51.156 449.223 50.722 449.223 48.734C449.195 46.69 451.281 45.99 452.975 45.99C454.431 45.99 455.817 46.284 456.685 47.768L455.761 48.342ZM458.911 46.2V46.186H462.481C465.813 46.186 467.409 48.566 467.409 50.988C467.409 53.494 465.911 56 462.481 56H458.911V46.2ZM462.481 54.782C465.085 54.782 466.191 52.85 466.191 50.974C466.191 49.154 464.987 47.362 462.481 47.362H460.129V54.782H462.481Z" fill="#36404E"/>
<mask id="path-39-inside-14_1339_1352" fill="white">
<path d="M389.5 70H529.5V106H389.5V70Z"/>
</mask>
<path d="M529.5 105H389.5V107H529.5V105Z" fill="#EBEBEB" mask="url(#path-39-inside-14_1339_1352)"/>
<path d="M405.084 83.292H401.738V82.2H409.634V83.292H406.288V92H405.084V83.292ZM410.491 85.084L410.505 85.07L410.589 86.106C411.065 85.21 411.919 84.958 412.717 84.958C413.319 84.944 413.907 85.154 414.327 85.476L413.809 86.456C413.445 86.204 413.081 86.078 412.605 86.078C411.499 86.092 410.575 86.876 410.575 88.15V92H409.427V85.084H410.491ZM415.415 85.056H416.563V92H415.415V85.056ZM415.121 82.704C415.121 83.866 416.871 83.866 416.871 82.718C416.871 81.542 415.121 81.542 415.121 82.704ZM420.965 94.394C420.965 93.232 422.715 93.232 422.715 94.408C422.715 95.556 420.965 95.556 420.965 94.394ZM424.871 90.894H424.857C424.157 91.72 422.953 92.126 421.875 92.126C419.733 92.126 418.235 90.712 418.235 88.514C418.235 86.428 419.733 84.93 421.819 84.93C423.933 84.93 425.543 86.232 425.277 88.99H419.425C419.551 90.264 420.573 91.062 421.903 91.062C422.687 91.062 423.639 90.754 424.101 90.194L424.871 90.894ZM424.185 88.024V88.038C424.129 86.694 423.205 85.966 421.847 85.966C420.643 85.966 419.621 86.694 419.425 88.024H424.185ZM419.593 84.006L421.539 82.116H422.267L424.213 84.006V84.104H423.023L421.903 83.026L420.783 84.104H419.593V84.006ZM432.234 92H432.248L432.192 90.894C431.576 91.734 430.75 92.098 429.784 92.112C428.02 92.112 426.774 90.922 426.774 88.906V85.084H427.922V88.892C427.922 90.222 428.706 91.048 430.022 91.048C431.282 91.034 432.15 90.04 432.15 88.794V85.084H433.298V92H432.234ZM447.106 82.2L447.12 82.214V88.094C447.12 90.81 445.286 92.182 443.144 92.182C441.058 92.182 439.126 90.838 439.126 88.094V82.214H440.33V88.094C440.33 90.04 441.632 91.062 443.144 91.062C444.656 91.062 445.916 89.998 445.916 88.08V82.2H447.106ZM455.761 84.342C455.229 83.488 454.095 83.096 453.003 83.082C451.757 83.082 450.427 83.572 450.427 84.762C450.427 85.826 451.645 86.134 453.087 86.372C455.047 86.68 456.979 87.072 456.979 89.284C456.965 91.482 454.865 92.196 452.989 92.196C451.253 92.196 449.601 91.566 448.845 89.928L449.853 89.34C450.483 90.502 451.799 91.062 453.003 91.062C454.193 91.062 455.775 90.684 455.775 89.242C455.789 88.024 454.417 87.674 452.947 87.45C451.057 87.156 449.223 86.722 449.223 84.734C449.195 82.69 451.281 81.99 452.975 81.99C454.431 81.99 455.817 82.284 456.685 83.768L455.761 84.342ZM458.911 82.2V82.186H462.481C465.813 82.186 467.409 84.566 467.409 86.988C467.409 89.494 465.911 92 462.481 92H458.911V82.2ZM462.481 90.782C465.085 90.782 466.191 88.85 466.191 86.974C466.191 85.154 464.987 83.362 462.481 83.362H460.129V90.782H462.481Z" fill="#36404E"/>
<mask id="path-42-inside-15_1339_1352" fill="white">
<path d="M389.5 106H529.5V142H389.5V106Z"/>
</mask>
<path d="M529.5 141H389.5V143H529.5V141Z" fill="#EBEBEB" mask="url(#path-42-inside-15_1339_1352)"/>
<path d="M402.802 118.2V118.186H406.372C409.704 118.186 411.3 120.566 411.3 122.988C411.3 125.494 409.802 128 406.372 128H402.802V118.2ZM406.372 126.782C408.976 126.782 410.082 124.85 410.082 122.974C410.082 121.154 408.878 119.362 406.372 119.362H404.02V126.782H406.372ZM415.068 130.394C415.068 129.232 416.818 129.232 416.818 130.408C416.818 131.556 415.068 131.556 415.068 130.394ZM419.87 119.964H420.92C420.878 121.252 420.262 121.756 419.408 121.91V128H418.358L418.302 126.894C417.686 127.734 416.86 128.098 415.894 128.112C414.13 128.112 412.884 126.922 412.884 124.906V121.084H414.032V124.892C414.032 126.222 414.816 127.048 416.132 127.048C417.392 127.034 418.26 126.04 418.26 124.794V121.084H419.254C419.618 120.958 419.87 120.65 419.87 119.964ZM431.899 128H430.793L430.765 126.74C430.219 127.692 429.169 128.14 428.203 128.14C426.215 128.154 424.661 126.782 424.661 124.528C424.661 122.288 426.243 120.944 428.217 120.944C429.253 120.944 430.275 121.42 430.765 122.316L430.779 121.056H431.899V127.972V128ZM428.287 121.994C426.915 121.994 425.809 122.974 425.809 124.514C425.809 126.054 426.915 127.048 428.287 127.048C431.605 127.048 431.605 121.98 428.273 121.98L428.287 121.994ZM428.091 119.894V119.964H429.141L430.541 118.158V118.116H429.141L428.091 119.894ZM433.995 121.084V121.07H435.045L435.101 122.176C435.703 121.35 436.543 120.972 437.467 120.972C439.217 120.972 440.505 122.148 440.505 124.178V128H439.357V124.192C439.357 122.862 438.573 122.036 437.257 122.036C435.997 122.05 435.129 123.044 435.129 124.29V128H433.995V121.084Z" fill="#36404E"/>
<mask id="path-45-inside-16_1339_1352" fill="white">
<path d="M529.5 0H669.5V142H529.5V0Z"/>
</mask>
<path d="M668.5 0V142H670.5V0H668.5Z" fill="#EBEBEB" mask="url(#path-45-inside-16_1339_1352)"/>
<mask id="path-47-inside-17_1339_1352" fill="white">
<path d="M529.5 0H669.5V34H529.5V0Z"/>
</mask>
<path d="M529.5 0H669.5V34H529.5V0Z" fill="#36404E" fill-opacity="0.06"/>
<path d="M669.5 33H529.5V35H669.5V33Z" fill="#EBEBEB" mask="url(#path-47-inside-17_1339_1352)"/>
<path d="M562.433 21V13.146H559.451V11.2C562.307 11.2 564.715 11.2 567.585 11.2V13.146H564.603V21H562.433ZM568.543 11.2H570.573V14.938C571.147 14.196 571.973 13.972 572.673 13.972C574.297 13.972 575.431 14.826 575.431 17.29V21H573.415V17.304C573.415 16.338 572.897 15.806 572.099 15.806C571.259 15.806 570.559 16.394 570.559 17.5V21H568.543V11.2ZM582.325 14.882L582.395 14.084H584.285C584.285 16.38 584.285 18.704 584.285 21H582.465L582.353 20.132C581.891 20.86 580.897 21.14 580.225 21.154C578.153 21.168 576.655 19.824 576.655 17.542C576.655 15.246 578.237 13.902 580.281 13.93C581.149 13.93 581.961 14.266 582.325 14.882ZM580.491 15.708C579.483 15.708 578.671 16.394 578.671 17.542C578.671 18.69 579.483 19.362 580.491 19.362C581.625 19.362 582.325 18.48 582.325 17.612C582.325 16.618 581.695 15.708 580.491 15.708ZM583.081 11.004H580.897L579.875 12.866V12.964H581.513L583.081 11.088V11.004ZM593.003 21H590.973V17.346C590.973 16.282 590.511 15.736 589.545 15.736C588.607 15.722 587.977 16.534 587.977 17.43V21H585.989V14.084H587.809L587.879 14.966C588.495 14.168 589.279 13.902 590.119 13.916C591.673 13.916 593.003 14.644 593.003 17.332V21ZM594.322 21.952H596.198C596.268 23.016 597.01 23.352 597.934 23.352C598.83 23.352 599.642 22.932 599.642 22.078C599.642 21.406 599.208 20.888 597.962 20.888C595.694 20.888 594.224 19.544 594.224 17.402C594.224 15.05 596.03 13.874 597.962 13.874C598.452 13.874 599.138 13.944 599.586 14.252L600.342 13.272L601.798 14.392L600.916 15.442C601.406 16.03 601.658 16.744 601.63 17.43C601.602 18.41 601.154 19.334 600.146 19.852C601.686 20.538 601.686 21.672 601.686 22.078C601.686 24.136 599.838 25.13 597.934 25.13C595.54 25.13 594.294 23.94 594.322 21.952ZM597.962 15.666C596.94 15.666 596.17 16.282 596.17 17.402C596.17 18.396 596.94 19.054 597.962 19.054C598.872 19.054 599.698 18.508 599.698 17.402C599.698 16.436 598.97 15.666 597.962 15.666ZM606.302 21V19.208H607.954V13.916L606.386 14.406V12.502L610.012 11.2V19.208H611.552V21H606.302ZM614.872 20.104C614.872 20.818 614.508 21.574 614.242 22.414H613.164L613.374 20.958C612.926 20.888 612.618 20.608 612.618 20.132C612.618 18.69 614.872 18.746 614.872 20.104ZM621.844 14.112H619.744C619.87 11.83 621.774 11.074 623.692 11.074C625.778 11.074 627.626 12.04 627.626 14.154C627.626 16.576 625.96 17.276 623.706 17.276C622.88 17.276 621.69 17.374 621.69 18.606V18.984H627.556V21H619.632C619.632 20.202 619.632 19.404 619.632 18.592C619.632 15.96 621.774 15.372 623.706 15.372C624.42 15.372 625.484 15.162 625.484 14.196C625.484 13.384 624.798 12.936 623.692 12.936C622.81 12.936 621.9 13.314 621.844 14.112ZM631.235 15.386V16.8C631.235 18.522 632.159 19.348 633.419 19.348C634.679 19.348 635.617 18.522 635.617 16.8V15.386C635.617 13.72 634.707 12.88 633.461 12.88C632.215 12.88 631.235 13.664 631.235 15.386ZM629.065 16.8V15.372C629.065 12.306 631.081 10.892 633.461 10.892C635.841 10.892 637.773 12.376 637.773 15.372V16.786C637.773 19.782 635.785 21.28 633.489 21.28C631.193 21.28 629.065 19.88 629.065 16.8ZM641.408 14.112H639.308C639.434 11.83 641.338 11.074 643.256 11.074C645.342 11.074 647.19 12.04 647.19 14.154C647.19 16.576 645.524 17.276 643.27 17.276C642.444 17.276 641.254 17.374 641.254 18.606V18.984H647.12V21H639.196C639.196 20.202 639.196 19.404 639.196 18.592C639.196 15.96 641.338 15.372 643.27 15.372C643.984 15.372 645.048 15.162 645.048 14.196C645.048 13.384 644.362 12.936 643.256 12.936C642.374 12.936 641.464 13.314 641.408 14.112ZM653.642 11.214H655.812V17.346H656.932V19.236H655.812V21.014H653.67V19.236H648.448L648.266 16.996L653.642 11.214ZM650.506 17.346H653.67V13.86L650.506 17.346Z" fill="#36404E" fill-opacity="0.8"/>
<mask id="path-50-inside-18_1339_1352" fill="white">
<path d="M529.5 34H669.5V70H529.5V34Z"/>
</mask>
<path d="M669.5 69H529.5V71H669.5V69Z" fill="#EBEBEB" mask="url(#path-50-inside-18_1339_1352)"/>
<path d="M620.234 54.978H622.054V47.726L620.332 48.188V47.068L623.272 46.2V54.978H625.05V56H620.234V54.978ZM626.322 55.37C626.322 54.376 627.834 54.376 627.834 55.384C627.834 56.378 626.322 56.378 626.322 55.37ZM634.936 53.942H629.28L629.112 52.598L634.208 46.2H636.168V52.808H637.358V53.942H636.168V56H634.936V53.942ZM634.936 52.808V47.124L630.4 52.808H634.936ZM638.788 53.228C638.788 52.15 639.586 51.24 640.678 50.932C639.67 50.54 638.998 49.896 638.998 48.804C638.998 46.788 641.014 46.004 642.904 46.004C644.78 46.004 646.838 46.774 646.852 48.804C646.852 49.784 646.138 50.568 645.116 50.918C646.194 51.226 647.02 52.192 647.034 53.256C647.048 55.566 644.878 56.224 642.904 56.21C640.958 56.21 638.774 55.58 638.788 53.228ZM645.62 48.776C645.634 47.544 644.108 47.026 642.89 47.026C641.616 47.026 640.202 47.586 640.216 48.776C640.23 49.98 641.77 50.442 642.904 50.442C644.052 50.442 645.62 49.98 645.62 48.776ZM642.904 51.408C641.714 51.38 640.006 51.856 640.006 53.214C640.006 54.572 641.574 55.09 642.89 55.09C644.192 55.09 645.816 54.586 645.816 53.228C645.816 51.898 644.08 51.408 642.904 51.408ZM648.702 50.12C648.702 44.688 656.626 44.702 656.626 50.12V52.08C656.626 57.498 648.702 57.512 648.702 52.08V50.12ZM649.92 52.08C649.92 55.986 655.408 55.972 655.408 52.066V50.106C655.408 46.242 649.92 46.214 649.92 50.12V52.08Z" fill="#36404E"/>
<mask id="path-53-inside-19_1339_1352" fill="white">
<path d="M529.5 70H669.5V106H529.5V70Z"/>
</mask>
<path d="M669.5 105H529.5V107H669.5V105Z" fill="#EBEBEB" mask="url(#path-53-inside-19_1339_1352)"/>
<path d="M605.201 84.916H603.983C604.067 82.732 606.055 82.088 607.861 82.088C609.681 82.088 611.641 82.83 611.641 85.014C611.641 87.24 609.695 87.94 607.805 87.94C606.657 87.954 605.145 88.234 605.145 89.634V90.838H611.599V92H603.913V89.634C603.913 87.422 605.929 86.806 607.791 86.806C608.827 86.806 610.437 86.442 610.437 85.028C610.437 83.6 609.107 83.18 607.861 83.152C606.657 83.152 605.215 83.572 605.201 84.916ZM613.375 91.37C613.375 90.376 614.887 90.376 614.887 91.384C614.887 92.378 613.375 92.378 613.375 91.37ZM623.249 89.172V87.03C622.619 87.954 621.485 88.262 620.463 88.262C618.559 88.262 616.543 87.422 616.543 85.14C616.543 82.942 618.573 82.018 620.477 82.018C622.409 82.018 624.453 82.97 624.453 85.182V89.186C624.453 91.188 622.521 92.126 620.589 92.126C618.559 92.126 616.781 91.3 616.711 89.466H617.929C617.971 90.502 619.217 91.048 620.575 91.048C621.891 91.048 623.249 90.404 623.249 89.172ZM620.477 83.124C619.203 83.138 617.775 83.67 617.775 85.14C617.775 86.582 619.147 87.17 620.463 87.17C621.793 87.17 623.221 86.526 623.221 85.14C623.221 83.684 621.793 83.124 620.477 83.124ZM626.195 90.978H628.015V83.726L626.293 84.188V83.068L629.233 82.2V90.978H631.011V92H626.195V90.978ZM637.561 83.348H631.807V82.2H638.975L639.073 82.984L634.173 92H632.787L637.561 83.348ZM639.991 92.042L640.005 92.014C639.725 91.944 639.515 91.734 639.515 91.398C639.515 90.418 641.013 90.446 641.013 91.426C641.013 91.552 640.691 92.406 640.411 93.302H639.641L639.991 92.042ZM649.376 89.172V87.03C648.746 87.954 647.612 88.262 646.59 88.262C644.686 88.262 642.67 87.422 642.67 85.14C642.67 82.942 644.7 82.018 646.604 82.018C648.536 82.018 650.58 82.97 650.58 85.182V89.186C650.58 91.188 648.648 92.126 646.716 92.126C644.686 92.126 642.908 91.3 642.838 89.466H644.056C644.098 90.502 645.344 91.048 646.702 91.048C648.018 91.048 649.376 90.404 649.376 89.172ZM646.604 83.124C645.33 83.138 643.902 83.67 643.902 85.14C643.902 86.582 645.274 87.17 646.59 87.17C647.92 87.17 649.348 86.526 649.348 85.14C649.348 83.684 647.92 83.124 646.604 83.124ZM652.322 90.978H654.142V83.726L652.42 84.188V83.068L655.36 82.2V90.978H657.138V92H652.322V90.978Z" fill="#36404E"/>
<mask id="path-56-inside-20_1339_1352" fill="white">
<path d="M529.5 106H669.5V142H529.5V106Z"/>
</mask>
<path d="M669.5 141H529.5V143H669.5V141Z" fill="#EBEBEB" mask="url(#path-56-inside-20_1339_1352)"/>
<path d="M629.932 120.748L629.904 120.734C629.918 118.662 631.962 118.046 633.684 118.046C635.798 118.046 637.394 119.082 637.408 120.818C637.408 121.826 636.68 122.694 635.658 122.932C636.722 123.198 637.604 124.094 637.604 125.186C637.604 127.118 635.868 128.112 633.67 128.112C631.906 128.112 629.764 127.496 629.764 125.326H630.982C630.996 126.796 632.648 126.992 633.698 126.992C635.252 126.992 636.386 126.362 636.386 125.228C636.386 124.402 635.644 123.478 633.754 123.478H632.172V122.456H633.67C635.182 122.456 636.19 121.756 636.204 120.832C636.218 120.02 635.476 119.166 633.698 119.166C632.648 119.166 631.136 119.432 631.136 120.748H629.932ZM639.268 122.12C639.268 116.688 647.192 116.702 647.192 122.12V124.08C647.192 129.498 639.268 129.512 639.268 124.08V122.12ZM640.486 124.08C640.486 127.986 645.974 127.972 645.974 124.066V122.106C645.974 118.242 640.486 118.214 640.486 122.12V124.08ZM650.236 120.916H649.018C649.102 118.732 651.09 118.088 652.896 118.088C654.716 118.088 656.676 118.83 656.676 121.014C656.676 123.24 654.73 123.94 652.84 123.94C651.692 123.954 650.18 124.234 650.18 125.634V126.838H656.634V128H648.948V125.634C648.948 123.422 650.964 122.806 652.826 122.806C653.862 122.806 655.472 122.442 655.472 121.028C655.472 119.6 654.142 119.18 652.896 119.152C651.692 119.152 650.25 119.572 650.236 120.916Z" fill="#36404E"/>
<mask id="path-59-inside-21_1339_1352" fill="white">
<path d="M669.5 0H809.5V142H669.5V0Z"/>
</mask>
<path d="M808.5 0V142H810.5V0H808.5Z" fill="#EBEBEB" mask="url(#path-59-inside-21_1339_1352)"/>
<mask id="path-61-inside-22_1339_1352" fill="white">
<path d="M669.5 0H809.5V34H669.5V0Z"/>
</mask>
<path d="M669.5 0H809.5V34H669.5V0Z" fill="#36404E" fill-opacity="0.06"/>
<path d="M809.5 33H669.5V35H809.5V33Z" fill="#EBEBEB" mask="url(#path-61-inside-22_1339_1352)"/>
<path d="M702.788 21V13.146H699.806V11.2C702.662 11.2 705.07 11.2 707.94 11.2V13.146H704.958V21H702.788ZM708.899 11.2H710.929V14.938C711.503 14.196 712.329 13.972 713.029 13.972C714.653 13.972 715.787 14.826 715.787 17.29V21H713.771V17.304C713.771 16.338 713.253 15.806 712.455 15.806C711.615 15.806 710.915 16.394 710.915 17.5V21H708.899V11.2ZM722.681 14.882L722.751 14.084H724.641C724.641 16.38 724.641 18.704 724.641 21H722.821L722.709 20.132C722.247 20.86 721.253 21.14 720.581 21.154C718.509 21.168 717.011 19.824 717.011 17.542C717.011 15.246 718.593 13.902 720.637 13.93C721.505 13.93 722.317 14.266 722.681 14.882ZM720.847 15.708C719.839 15.708 719.027 16.394 719.027 17.542C719.027 18.69 719.839 19.362 720.847 19.362C721.981 19.362 722.681 18.48 722.681 17.612C722.681 16.618 722.051 15.708 720.847 15.708ZM723.437 11.004H721.253L720.231 12.866V12.964H721.869L723.437 11.088V11.004ZM733.358 21H731.328V17.346C731.328 16.282 730.866 15.736 729.9 15.736C728.962 15.722 728.332 16.534 728.332 17.43V21H726.344V14.084H728.164L728.234 14.966C728.85 14.168 729.634 13.902 730.474 13.916C732.028 13.916 733.358 14.644 733.358 17.332V21ZM734.677 21.952H736.553C736.623 23.016 737.365 23.352 738.289 23.352C739.185 23.352 739.997 22.932 739.997 22.078C739.997 21.406 739.563 20.888 738.317 20.888C736.049 20.888 734.579 19.544 734.579 17.402C734.579 15.05 736.385 13.874 738.317 13.874C738.807 13.874 739.493 13.944 739.941 14.252L740.697 13.272L742.153 14.392L741.271 15.442C741.761 16.03 742.013 16.744 741.985 17.43C741.957 18.41 741.509 19.334 740.501 19.852C742.041 20.538 742.041 21.672 742.041 22.078C742.041 24.136 740.193 25.13 738.289 25.13C735.895 25.13 734.649 23.94 734.677 21.952ZM738.317 15.666C737.295 15.666 736.525 16.282 736.525 17.402C736.525 18.396 737.295 19.054 738.317 19.054C739.227 19.054 740.053 18.508 740.053 17.402C740.053 16.436 739.325 15.666 738.317 15.666ZM746.658 21V19.208H748.31V13.916L746.742 14.406V12.502L750.368 11.2V19.208H751.908V21H746.658ZM755.227 20.104C755.227 20.818 754.863 21.574 754.597 22.414H753.519L753.729 20.958C753.281 20.888 752.973 20.608 752.973 20.132C752.973 18.69 755.227 18.746 755.227 20.104ZM762.199 14.112H760.099C760.225 11.83 762.129 11.074 764.047 11.074C766.133 11.074 767.981 12.04 767.981 14.154C767.981 16.576 766.315 17.276 764.061 17.276C763.235 17.276 762.045 17.374 762.045 18.606V18.984H767.911V21H759.987C759.987 20.202 759.987 19.404 759.987 18.592C759.987 15.96 762.129 15.372 764.061 15.372C764.775 15.372 765.839 15.162 765.839 14.196C765.839 13.384 765.153 12.936 764.047 12.936C763.165 12.936 762.255 13.314 762.199 14.112ZM771.591 15.386V16.8C771.591 18.522 772.515 19.348 773.775 19.348C775.035 19.348 775.973 18.522 775.973 16.8V15.386C775.973 13.72 775.063 12.88 773.817 12.88C772.571 12.88 771.591 13.664 771.591 15.386ZM769.421 16.8V15.372C769.421 12.306 771.437 10.892 773.817 10.892C776.197 10.892 778.129 12.376 778.129 15.372V16.786C778.129 19.782 776.141 21.28 773.845 21.28C771.549 21.28 769.421 19.88 769.421 16.8ZM781.764 14.112H779.664C779.79 11.83 781.694 11.074 783.612 11.074C785.698 11.074 787.546 12.04 787.546 14.154C787.546 16.576 785.88 17.276 783.626 17.276C782.8 17.276 781.61 17.374 781.61 18.606V18.984H787.476V21H779.552C779.552 20.202 779.552 19.404 779.552 18.592C779.552 15.96 781.694 15.372 783.626 15.372C784.34 15.372 785.404 15.162 785.404 14.196C785.404 13.384 784.718 12.936 783.612 12.936C782.73 12.936 781.82 13.314 781.764 14.112ZM796.377 11.214V13.174H791.225V14.686H792.947C795.047 14.686 796.937 15.344 796.923 17.878C796.923 20.286 794.795 21.126 793.003 21.126C790.735 21.126 789.013 20.3 788.999 17.976H791.155C791.155 18.858 792.163 19.194 792.975 19.194C793.507 19.194 794.767 18.998 794.767 17.878C794.781 16.786 793.605 16.562 792.947 16.562H789.195C789.195 14.728 789.195 13.062 789.195 11.214H796.377Z" fill="#36404E" fill-opacity="0.8"/>
<mask id="path-64-inside-23_1339_1352" fill="white">
<path d="M669.5 34H809.5V70H669.5V34Z"/>
</mask>
<path d="M809.5 69H669.5V71H809.5V69Z" fill="#EBEBEB" mask="url(#path-64-inside-23_1339_1352)"/>
<path d="M764.199 54.978H766.019V47.726L764.297 48.188V47.068L767.237 46.2V54.978H769.015V56H764.199V54.978ZM770.287 55.37C770.287 54.376 771.799 54.376 771.799 55.384C771.799 56.378 770.287 56.378 770.287 55.37ZM777.543 49.854C779.923 49.854 781.267 51.044 781.267 52.92C781.267 54.81 779.769 56.084 777.459 56.084C775.513 56.084 773.595 55.412 773.581 53.186H774.799C774.799 54.614 776.297 54.936 777.431 54.936C778.985 54.936 780.049 54.18 780.049 52.934C780.049 51.786 779.195 51.002 777.543 51.002H773.763V46.2H780.707V47.32H774.953V49.854H777.543ZM782.656 54.978H784.476V47.726L782.754 48.188V47.068L785.694 46.2V54.978H787.472V56H782.656V54.978ZM788.702 50.12C788.702 44.688 796.626 44.702 796.626 50.12V52.08C796.626 57.498 788.702 57.512 788.702 52.08V50.12ZM789.92 52.08C789.92 55.986 795.408 55.972 795.408 52.066V50.106C795.408 46.242 789.92 46.214 789.92 50.12V52.08Z" fill="#36404E"/>
<mask id="path-67-inside-24_1339_1352" fill="white">
<path d="M669.5 70H809.5V106H669.5V70Z"/>
</mask>
<path d="M809.5 105H669.5V107H809.5V105Z" fill="#EBEBEB" mask="url(#path-67-inside-24_1339_1352)"/>
<path d="M742.247 89.942H736.591L736.423 88.598L741.519 82.2H743.479V88.808H744.669V89.942H743.479V92H742.247V89.942ZM742.247 88.808V83.124L737.711 88.808H742.247ZM746.211 91.37C746.211 90.376 747.723 90.376 747.723 91.384C747.723 92.378 746.211 92.378 746.211 91.37ZM749.561 84.748L749.533 84.734C749.547 82.662 751.591 82.046 753.313 82.046C755.427 82.046 757.023 83.082 757.037 84.818C757.037 85.826 756.309 86.694 755.287 86.932C756.351 87.198 757.233 88.094 757.233 89.186C757.233 91.118 755.497 92.112 753.299 92.112C751.535 92.112 749.393 91.496 749.393 89.326H750.611C750.625 90.796 752.277 90.992 753.327 90.992C754.881 90.992 756.015 90.362 756.015 89.228C756.015 88.402 755.273 87.478 753.383 87.478H751.801V86.456H753.299C754.811 86.456 755.819 85.756 755.833 84.832C755.847 84.02 755.105 83.166 753.327 83.166C752.277 83.166 750.765 83.432 750.765 84.748H749.561ZM758.953 84.748L758.925 84.734C758.939 82.662 760.983 82.046 762.705 82.046C764.819 82.046 766.415 83.082 766.429 84.818C766.429 85.826 765.701 86.694 764.679 86.932C765.743 87.198 766.625 88.094 766.625 89.186C766.625 91.118 764.889 92.112 762.691 92.112C760.927 92.112 758.785 91.496 758.785 89.326H760.003C760.017 90.796 761.669 90.992 762.719 90.992C764.273 90.992 765.407 90.362 765.407 89.228C765.407 88.402 764.665 87.478 762.775 87.478H761.193V86.456H762.691C764.203 86.456 765.211 85.756 765.225 84.832C765.239 84.02 764.497 83.166 762.719 83.166C761.669 83.166 760.157 83.432 760.157 84.748H758.953ZM773.61 89.942H767.954L767.786 88.598L772.882 82.2H774.842V88.808H776.032V89.942H774.842V92H773.61V89.942ZM773.61 88.808V83.124L769.074 88.808H773.61ZM778.05 92.042L778.064 92.014C777.784 91.944 777.574 91.734 777.574 91.398C777.574 90.418 779.072 90.446 779.072 91.426C779.072 91.552 778.75 92.406 778.47 93.302H777.7L778.05 92.042ZM786.174 83.348H780.42V82.2H787.588L787.686 82.984L782.786 92H781.4L786.174 83.348ZM795.282 89.172V87.03C794.652 87.954 793.518 88.262 792.496 88.262C790.592 88.262 788.576 87.422 788.576 85.14C788.576 82.942 790.606 82.018 792.51 82.018C794.442 82.018 796.486 82.97 796.486 85.182V89.186C796.486 91.188 794.554 92.126 792.622 92.126C790.592 92.126 788.814 91.3 788.744 89.466H789.962C790.004 90.502 791.25 91.048 792.608 91.048C793.924 91.048 795.282 90.404 795.282 89.172ZM792.51 83.124C791.236 83.138 789.808 83.67 789.808 85.14C789.808 86.582 791.18 87.17 792.496 87.17C793.826 87.17 795.254 86.526 795.254 85.14C795.254 83.684 793.826 83.124 792.51 83.124Z" fill="#36404E"/>
<mask id="path-70-inside-25_1339_1352" fill="white">
<path d="M669.5 106H809.5V142H669.5V106Z"/>
</mask>
<path d="M809.5 141H669.5V143H809.5V141Z" fill="#EBEBEB" mask="url(#path-70-inside-25_1339_1352)"/>
<path d="M770.959 120.916H769.741C769.825 118.732 771.813 118.088 773.619 118.088C775.439 118.088 777.399 118.83 777.399 121.014C777.399 123.24 775.453 123.94 773.563 123.94C772.415 123.954 770.903 124.234 770.903 125.634V126.838H777.357V128H769.671V125.634C769.671 123.422 771.687 122.806 773.549 122.806C774.585 122.806 776.195 122.442 776.195 121.028C776.195 119.6 774.865 119.18 773.619 119.152C772.415 119.152 770.973 119.572 770.959 120.916ZM779.021 125.228C779.021 124.15 779.819 123.24 780.911 122.932C779.903 122.54 779.231 121.896 779.231 120.804C779.231 118.788 781.247 118.004 783.137 118.004C785.013 118.004 787.071 118.774 787.085 120.804C787.085 121.784 786.371 122.568 785.349 122.918C786.427 123.226 787.253 124.192 787.267 125.256C787.281 127.566 785.111 128.224 783.137 128.21C781.191 128.21 779.007 127.58 779.021 125.228ZM785.853 120.776C785.867 119.544 784.341 119.026 783.123 119.026C781.849 119.026 780.435 119.586 780.449 120.776C780.463 121.98 782.003 122.442 783.137 122.442C784.285 122.442 785.853 121.98 785.853 120.776ZM783.137 123.408C781.947 123.38 780.239 123.856 780.239 125.214C780.239 126.572 781.807 127.09 783.123 127.09C784.425 127.09 786.049 126.586 786.049 125.228C786.049 123.898 784.313 123.408 783.137 123.408ZM790.236 120.916H789.018C789.102 118.732 791.09 118.088 792.896 118.088C794.716 118.088 796.676 118.83 796.676 121.014C796.676 123.24 794.73 123.94 792.84 123.94C791.692 123.954 790.18 124.234 790.18 125.634V126.838H796.634V128H788.948V125.634C788.948 123.422 790.964 122.806 792.826 122.806C793.862 122.806 795.472 122.442 795.472 121.028C795.472 119.6 794.142 119.18 792.896 119.152C791.692 119.152 790.25 119.572 790.236 120.916Z" fill="#36404E"/>
</g>
<rect x="1" y="0.5" width="808" height="141" rx="7.5" stroke="#EBEBEB"/>
<defs>
<clipPath id="clip0_1339_1352">
<rect x="0.5" width="809" height="142" rx="8" fill="white"/>
</clipPath>
</defs>
</svg>
