<svg width="1920" height="400" viewBox="0 0 1920 400" fill="none" xmlns="http://www.w3.org/2000/svg">
<rect width="1920" height="400" fill="#2C3746"/>
<g opacity="0.2" clip-path="url(#clip0_1259_349)">
<path d="M1558.48 208.69L1556.97 202.95L1578.17 197.52L1579.76 203.7L1558.48 208.69ZM1613.72 197.82L1611.46 191.33L1585.66 195.44L1587.4 201.88L1613.72 197.82ZM1653.27 195.71L1652.12 188.83L1620.98 190.57L1622.33 196.77L1653.27 195.71ZM1692.51 195.25L1691.76 188.31L1663.69 189.37L1663.95 195.44L1692.51 195.25ZM1729.88 195.26L1729.94 187.71L1699.6 188.46L1700.3 195.08L1729.88 195.26ZM1643.21 203.51C1685.08 202.67 1779.63 201.51 1779.63 201.51L1779.34 197.11L1747.16 199.26L1744.66 185.27L1740.32 186.05L1742.69 199.35C1730.57 199.14 1680 198.37 1643.12 199.11C1600.9 199.96 1554.76 213.86 1554.3 214L1555.58 218.22C1556.04 218.07 1601.59 204.34 1643.21 203.51ZM1901 352.13L1893.29 349.22C1893.29 350.07 1890.8 359 1890.8 359L1898.95 361.68L1901 352.13ZM1900.43 399.47C1900.43 399.47 1851.23 400.72 1821.33 398.22C1791.43 395.73 1509.28 398.22 1509.28 398.22C1509.28 398.22 1496.82 377.67 1489.97 362.72C1483.12 347.77 1399.03 259.33 1387.2 246.25C1375.37 233.17 1342.98 218.85 1356.06 205.77C1363.66 198.17 1373.58 198.77 1405.72 203.18L1406.05 137.36C1406.05 137.36 1414.72 139.44 1418.53 144.99C1422.34 150.54 1426.5 156.43 1426.5 156.43L1425.81 172.38C1425.81 172.38 1423.04 171.34 1418.87 168.91C1414.71 166.48 1411.93 166.14 1411.93 166.14L1409.95 203.77C1433.07 206.97 1466.79 211.84 1517.36 216.99C1525.19 217.79 1533.15 218.82 1541.2 220.05C1541.2 220.05 1536.23 198.09 1536.9 197.17C1537.31 196.61 1541.12 194.73 1542.81 193.65C1546.9 191.03 1553.07 187.07 1559.25 184.86C1567.17 182.03 1571.19 180.81 1572.47 180.43L1587.53 168.14C1586.71 166.67 1585.91 164.47 1586.39 161.94C1587.07 158.38 1590.01 155.38 1595.13 153.03C1606.41 147.85 1662.12 129.15 1728.61 132.37C1791.05 135.39 1809.17 156.47 1813.24 162.86C1815.79 166.87 1819.56 178.48 1819.72 178.97L1813.65 190.27L1815.85 190L1827.55 181.95C1834.98 181.51 1852.58 181.11 1855.34 187.03C1857.77 192.23 1865.74 209.22 1865.74 209.22L1864.25 240.39C1864.25 240.39 1868.36 246.42 1868.37 246.42C1872.03 246.42 1883.05 246.69 1890.88 249.7C1894.65 251.15 1898.95 253.37 1901.73 256.38C1904.77 259.67 1902.88 268.36 1898.06 269.21C1897.77 269.52 1894.88 276.33 1894.4 275.84L1905.69 287.13L1904.29 293.09L1915.15 304.96L1916.57 343.91V352.73L1918.47 353.36C1925.34 395.11 1900.43 399.47 1900.43 399.47ZM1394.75 244.25C1390.9 239.71 1387.11 235.12 1383.51 230.38C1380.64 226.6 1376 222.28 1375.11 217.41C1374.05 211.58 1383.4 208.79 1387.48 207.22C1384.45 208.39 1361.01 204.16 1363.71 212.41C1364.02 213.36 1364.7 214.13 1365.36 214.87C1368.67 218.59 1371.95 222.33 1375.3 226.01C1377.18 228.08 1379.07 230.14 1380.95 232.2C1381.92 233.27 1386.56 237.09 1386.56 238.43C1394.22 245.83 1399.51 249.87 1394.75 244.25ZM1871.89 250.93L1874.82 254.24C1875.63 254.34 1880.49 254.95 1886.17 256.57C1890.35 257.76 1894.59 261.81 1897.22 264.74C1897.72 264.03 1898.4 262.25 1898.86 260.45C1898.04 259.25 1895.49 256.22 1889.32 253.84C1883.93 251.76 1876.59 251.12 1871.89 250.93ZM1884.95 260.81C1882.97 260.24 1881.09 259.81 1879.46 259.48C1881.05 259.8 1884.14 264.76 1885.19 265.95C1887.2 268.22 1889.31 270.45 1891.22 272.78C1891.55 273.18 1893.74 268.03 1893.93 267.67C1891.5 264.99 1887.97 261.68 1884.95 260.81ZM1546.72 220.91C1550.85 221.58 1556.54 221.6 1556.54 221.6C1556.54 221.6 1627.97 210.16 1666.11 209.46C1704.25 208.77 1740.31 213.27 1740.31 213.27L1741.35 205.99L1773.3 212.04L1774.26 210.87L1833.82 259.94L1832.93 247.91L1782.71 199.36L1785.78 196.19L1833.56 242.37L1848.55 242.95L1848.42 244.32L1899.15 295.33L1900.86 288.52L1891.59 279.25L1848 230.6C1842.8 230.27 1833.21 229.54 1830.36 228.52C1826.38 227.1 1828.08 223.4 1828.08 222.26C1828.08 221.12 1840.89 220.84 1849.71 221.12C1856.12 221.33 1854.12 226.34 1852.54 229.07L1860.01 237.51L1861.52 210.59C1860.18 207.74 1853.53 193.57 1851.35 188.9C1850.43 186.93 1839.62 185.72 1828.46 186.32L1824.89 188.91L1831.49 188.11L1844.87 190.96L1821.53 217.71L1781.69 176.73C1781.69 176.73 1735.49 174.35 1713.67 176.45C1616.06 185.84 1586.74 184.99 1587.6 180.72C1588.46 176.45 1747.54 171.9 1746.12 167.91C1744.7 163.93 1597.56 173.6 1597.56 173.6C1597.56 173.6 1596.99 165.35 1596.99 164.49C1596.99 163.64 1645.37 156.52 1665.58 154.24C1683.64 152.21 1710.59 147.24 1748.61 150.88C1749.71 147.17 1752.11 141.92 1756.65 143.43C1760.35 144.66 1762.15 152.47 1762.63 152.54C1808.16 159.09 1807.03 184.13 1807.03 184.13L1803.33 191.53L1808.08 190.95L1815.24 179.36C1813.99 175.6 1811.26 167.9 1809.55 165.23C1806.86 161 1790.31 139.77 1728.43 136.78C1662.8 133.6 1608.06 151.95 1596.99 157.04C1593.29 158.74 1591.13 160.72 1590.74 162.77C1590.3 165.05 1592.1 167.01 1592.12 167.03L1593.77 168.75L1574.12 184.55C1574.08 184.56 1570.23 185.62 1560.76 189.01C1555.06 191.05 1549.37 194.69 1545.22 197.35C1543.17 198.66 1541.86 199.5 1540.88 199.99C1541.35 203.24 1546.72 220.91 1546.72 220.91ZM1893.36 324.65L1894.46 319.09L1844.71 282.82L1843.77 292.53L1893.36 324.65ZM1845.3 298.79L1843.5 311.54L1858.98 320.58L1861.19 309.08L1845.3 298.79ZM1895.4 314.32L1896.07 309.03L1846.32 266.1L1845.2 277.73L1895.4 314.32ZM1897.37 304.33L1897.65 300.1L1847.86 250.04L1846.83 260.72L1897.37 304.33ZM1835.86 287.41L1835 275.75L1773.73 231.09C1773.49 236.01 1773.14 241.37 1772.66 246.49L1835.86 287.41ZM1800.23 269.6L1797.56 284.71L1814.43 294.57L1816.05 279.86L1800.23 269.6ZM1772.12 251.4C1771.26 258.54 1770.07 264.68 1768.41 267.68L1792.14 281.54L1794.86 266.13L1772.12 251.4ZM1834.57 269.98L1831.22 263.53L1774.22 216.57C1774.17 218.94 1774.09 222.13 1773.95 225.79L1834.57 269.98ZM1819.99 297.81L1838.01 308.33L1839.86 295.26L1821.58 283.42L1819.99 297.81ZM1764.93 236.86L1765.97 227.5L1760.77 226.46L1760.08 235.48L1764.93 236.86ZM1758.69 243.45L1758 252.47L1762.85 253.86L1763.89 244.5L1758.69 243.45ZM1750.02 224.38L1749.33 233.4L1754.18 234.79L1755.22 225.43L1750.02 224.38ZM1722.19 387.82C1722.22 383.65 1504.29 374.57 1504.29 374.57L1506.45 380.73C1506.44 380.73 1722.15 391.99 1722.19 387.82ZM1702.87 317.48L1702.17 302.55L1696.58 301.06L1695.88 315.99L1702.87 317.48ZM1716.68 320.67L1715.98 305.73L1710.39 304.24L1709.69 319.18L1716.68 320.67ZM1624.5 233.4C1624.5 233.4 1728.18 239.99 1729.56 233.05C1730.95 226.12 1658.13 220.22 1624.15 224.73C1608.2 226.85 1595.46 228.04 1586.43 228.72C1633.44 239.39 1680.54 254.74 1719.27 268.91L1723.32 260.1L1624.5 233.4ZM1730.5 323.86L1729.8 308.93L1724.21 307.44L1723.51 322.37L1730.5 323.86ZM1744.31 327.05L1743.61 312.11L1738.02 310.62L1737.32 325.55L1744.31 327.05ZM1747.25 250.39L1752.1 251.78L1753.14 242.42L1747.94 241.38L1747.25 250.39ZM1758.12 330.24L1757.42 315.3L1751.83 313.81L1751.13 328.75L1758.12 330.24ZM1771.94 333.44L1771.24 318.51L1765.65 317.02L1764.95 331.95L1771.94 333.44ZM1785.75 336.63L1785.05 321.69L1779.46 320.2L1778.76 335.14L1785.75 336.63ZM1908.61 353.04L1765.34 270.93C1759.43 276.28 1753.84 281.59 1753.84 281.59L1809.5 305.42V336.56L1906.04 366.46L1908.61 353.04ZM1912.17 344.01L1910.81 306.76L1903.06 298.28L1895.27 336.08L1891.51 334.58L1891.41 328.65L1866.5 312.52L1864.35 323.72L1910.69 350.79L1912.15 351.28V344.01H1912.17ZM1822.08 324.1C1826.35 324.95 1826.77 326.41 1826.77 326.41C1826.77 326.41 1825.87 341.04 1827.86 340.75C1829.85 340.47 1832.04 328.33 1832.04 328.33L1840.19 330.53C1840.19 330.53 1839.01 343.32 1840.67 343.81C1843.86 344.75 1844.41 332.54 1844.41 332.54L1848.56 334.42C1848.56 334.42 1848.44 345.87 1849.78 346.44C1852.88 347.75 1853.63 337.05 1853.63 337.05L1859.45 339.32C1859.45 339.32 1857.51 349.37 1860.02 350.13C1864.52 351.5 1866.4 342.67 1866.4 342.67L1870.58 344.13C1870.58 344.13 1868.72 352.77 1870.55 353.55C1873.72 354.88 1873.93 345.57 1873.93 345.57L1880.16 348.25C1880.16 348.25 1879.1 354.68 1879.59 356.01C1879.97 357.06 1881.89 356.78 1881.89 356.78L1884.77 343.26L1821.89 310.57L1820.18 313.42C1819.89 314.57 1817.81 323.24 1822.08 324.1Z" fill="url(#paint0_linear_1259_349)"/>
</g>
<g clip-path="url(#clip1_1259_349)">
<path d="M281.231 190.154C277.846 190.154 274.923 189.077 272.308 186.923C270.923 185.846 269.692 184.615 268.461 183.384C267.538 182.461 266.615 181.692 265.538 181.077C263.538 179.846 261.692 180 259.846 181.077C258.923 181.692 258 182.307 257.231 183.077C256 184.307 254.615 185.538 253.231 186.615C248.769 190.307 244 191.077 238.615 188.923C237.384 188.461 236.308 187.692 235.384 186.923L231.231 183.231C230.461 182.461 229.538 181.692 228.615 181.077C226.769 179.846 225.077 179.692 223.077 180.769C221.538 181.692 220 182.923 218.769 184.154C217.077 185.846 215.384 187.384 213.231 188.461C208.769 190.769 204.461 190.615 200 188.307C198.154 187.231 196.615 185.846 195.077 184.307C193.846 183.077 192.615 182 191.231 181.077C189.538 180 187.846 179.846 186 180.769C184.461 181.538 183.231 182.769 182 183.846C180.923 184.769 180 185.692 178.923 186.615C175.231 189.692 171.077 190.923 166.308 189.692C164.461 189.231 162.769 188.307 161.231 187.231C159.846 186.154 158.461 184.923 157.231 183.692C156 182.307 155.846 180.461 157.077 179.077C158.308 177.692 160.308 177.692 161.692 178.923C162.769 179.846 163.692 180.769 164.615 181.692C165.538 182.615 166.615 183.077 167.692 183.384C170.154 184 172.461 183.538 174.461 181.692C175.846 180.615 177.077 179.384 178.308 178.307C180.154 176.615 182.154 175.231 184.461 174.307C187.384 173.231 190.154 173.384 192.923 174.615C195.077 175.538 196.769 177.077 198.308 178.615C199.538 179.692 200.769 180.923 202 182C204.461 184 207.077 184.154 209.846 182.923C212 181.846 213.384 180 215.077 178.615C217.231 176.923 219.231 175.231 221.846 174.307C224.923 173.384 227.692 173.538 230.461 175.077C232.308 176 234 177.231 235.384 178.769C236.461 180 237.846 181.077 239.077 182.154C241.538 184.154 244.769 184.307 247.384 182.615C249.077 181.538 250.615 180 252 178.615C253.692 177.077 255.538 175.692 257.538 174.769C261.384 173.077 264.923 173.384 268.461 175.538C270.615 176.923 272.461 178.615 274.308 180.461C275.538 181.692 276.923 182.923 278.615 183.384C281.231 184 283.538 183.538 285.538 181.692C286.769 180.461 288.154 179.538 289.384 178.307C290.923 176.769 293.077 177.231 294.154 178.461C295.384 179.846 295.231 181.846 293.846 183.231C292.308 184.615 290.769 186 289.231 187.231C287.231 189.077 284.461 190.154 281.231 190.154ZM280.769 246.615C277.846 246.615 274.923 245.538 272.308 243.384C270.923 242.307 269.692 241.077 268.461 239.846C267.538 238.923 266.615 238.154 265.538 237.538C263.538 236.307 261.692 236.461 259.846 237.538C258.461 238.307 257.384 239.384 256.308 240.461C255.077 241.692 253.846 242.769 252.461 243.846C248.308 246.923 243.692 247.538 238.769 245.538C237.077 244.923 235.846 243.846 234.461 242.769C232.769 241.231 231.231 239.538 229.384 238.154C226.923 236.154 224.923 236.154 222.308 238C220.154 239.384 218.615 241.231 216.769 242.923C213.692 245.384 210.308 247.077 206.308 246.769C204.769 246.615 203.231 246.307 201.692 245.692C199.384 244.615 197.384 243.077 195.692 241.231C194.615 240 193.231 239.077 192 238C190 236.461 187.846 236.307 185.692 237.692C184.308 238.615 182.923 239.692 181.692 240.923C179.384 243.077 177.077 245.077 174 246.154C171.538 246.923 169.077 246.923 166.615 246.461C164.615 246 162.769 244.923 161.077 243.692C159.846 242.461 158.615 241.384 157.538 240.154C156.308 238.923 156.154 236.923 157.384 235.538C158.461 234.307 160.461 234 161.846 235.231C162.923 236.154 163.846 237.231 164.923 238.154C167.846 240.769 171.538 240.769 174.615 238.461C176.154 237.231 177.692 235.846 179.077 234.461C181.692 232.154 184.461 230.461 188 230.154C189.538 230 191.077 230.307 192.461 230.769C194.923 231.692 196.923 233.231 198.769 235.077C200 236.154 201.077 237.384 202.461 238.307C204.923 240.307 207.538 240.615 210.461 239.231C212.461 238.154 213.846 236.461 215.538 235.077C218 233.077 220.461 230.923 223.692 230.307C226.461 229.692 229.077 230.307 231.384 231.692C233.231 232.769 234.923 234.154 236.308 235.692C237.384 236.769 238.461 237.692 239.692 238.615C242.154 240.615 245.231 240.615 247.846 239.077C249.692 237.846 251.231 236.307 252.769 234.769C254.615 233.077 256.615 231.692 258.923 230.769C262 229.538 265.077 229.846 268 231.538C269.846 232.615 271.538 233.846 272.923 235.231C273.846 236.154 274.769 237.077 275.692 237.846C279.231 240.923 282.923 240.923 286.461 237.846L290.154 234.615C291.384 233.538 293.231 233.538 294.461 234.615C295.692 235.692 295.846 237.384 295.077 238.769C294.769 239.231 294.461 239.538 294.154 239.846C292.923 240.923 291.846 242 290.615 243.077C287.846 245.231 284.769 246.615 280.769 246.615ZM281.077 218.307C277.692 218.307 274.769 217.231 272.154 214.923C270.769 213.846 269.538 212.615 268.308 211.384C267.384 210.461 266.308 209.692 265.231 208.923C263.384 207.846 261.692 208.154 259.846 209.077C258.769 209.692 257.846 210.461 257.077 211.231C255.692 212.615 254.308 213.846 252.769 215.077C248.461 218.461 243.846 219.077 238.769 217.231C237.231 216.615 236 215.692 234.923 214.769C232.923 213.077 231.231 211.077 229.077 209.538C226.923 208 224.923 207.846 222.769 209.231C221.384 210.154 220 211.231 218.923 212.461C217.077 214.307 214.923 216 212.461 217.077C208.308 218.923 204.154 218.615 200.154 216.461C198.308 215.538 196.923 214.154 195.538 212.615C194.308 211.384 193.077 210.307 191.692 209.231C190 208 188.154 207.846 186.154 208.923C184.615 209.692 183.384 210.923 182.154 212C181.077 212.923 180 214.154 178.769 215.077C174.461 218.461 169.692 219.231 164.615 217.231C161.692 216 159.384 213.846 157.231 211.384C156.154 210.154 156.308 208.154 157.538 207.077C158.769 205.846 160.615 205.846 162 206.923C162.923 207.846 163.846 208.769 164.923 209.692C168 212.461 172.154 212.461 175.384 209.538C176.923 208.154 178.461 206.769 180 205.538C182.154 203.692 184.615 202.307 187.384 201.846C189.384 201.538 191.384 201.846 193.384 202.615C195.538 203.538 197.231 204.923 198.769 206.461C200 207.538 201.077 208.615 202.308 209.692C205.077 212.307 209.077 212.307 212.154 209.846C213.077 209.077 214 208.154 214.923 207.384C216.154 206.154 217.538 205.077 219.077 204C223.538 201.077 228.154 200.615 232.769 203.846C234.154 204.769 235.384 205.692 236.461 206.923C237.538 208.154 238.923 209.231 240.154 210.154C242.461 212 245.692 212.154 248.308 210.461C250 209.384 251.384 208 252.923 206.615C254.615 204.923 256.461 203.692 258.615 202.769C262.308 201.077 266 201.384 269.538 203.692C271.384 204.923 273.077 206.307 274.615 207.846C275.538 208.923 276.615 209.846 277.846 210.615C280.461 212.307 284.154 212.154 286.923 209.538C288.154 208.461 289.384 207.384 290.615 206.154C292 204.923 294.154 205.077 295.231 206.307C296.461 207.692 296.308 209.692 294.923 211.077C293.538 212.461 292 213.692 290.461 214.923C287.384 217.231 284.461 218.461 281.077 218.307ZM170 161.846C166.769 161.846 163.846 160.923 161.231 158.923C160 157.846 158.769 156.769 157.538 155.538C156.154 154.154 156.154 152.154 157.231 150.923C158.461 149.538 160.461 149.538 162 150.769C162.923 151.692 163.846 152.615 164.769 153.384C167.846 156 171.384 156 174.461 153.538C175.846 152.461 177.231 151.231 178.615 150C181.077 147.846 183.692 146 186.923 145.538C189.077 145.077 191.231 145.538 193.231 146.461C195.231 147.384 196.769 148.769 198.461 150.154C199.538 151.231 200.769 152.154 201.846 153.231C204.923 156.154 209.077 156 212.154 153.231C213.077 152.461 214 151.538 214.923 150.615C216.615 149.231 218.308 147.692 220.308 146.769C224.308 144.769 228.308 144.769 232.308 147.384C234.308 148.769 236 150.461 237.846 152.154C239.077 153.231 240.308 154.461 242 155.077C244.461 155.846 246.615 155.384 248.769 153.846C250.308 152.769 251.538 151.538 252.923 150.154C254.769 148.307 256.923 146.923 259.384 146C262.461 144.923 265.538 145.077 268.461 146.769C270.308 147.692 271.846 148.923 273.384 150.461C274.308 151.384 275.231 152.307 276.154 153.077C279.384 156 283.231 156.154 286.615 153.384C287.846 152.307 289.077 151.231 290.154 150.154C291.692 148.769 293.846 148.615 295.077 150.154C296.308 151.692 296.154 153.692 294.461 155.077L290.769 158.307C285.384 163.077 277.384 162.923 272.461 158.461C271.077 157.231 269.846 156.154 268.615 154.923C267.692 154 266.615 153.231 265.538 152.615C263.692 151.538 262 151.846 260.308 152.923C259.384 153.538 258.461 154.154 257.692 154.923C256.308 156.307 254.769 157.538 253.231 158.769C248.923 162.154 244.154 162.923 239.077 160.923C237.538 160.307 236.154 159.384 235.077 158.307C233.538 156.923 232.154 155.538 230.615 154.154C229.692 153.384 228.615 152.615 227.384 152.154C226 151.692 224.769 152 223.538 152.615C222 153.384 220.769 154.461 219.538 155.692C217.846 157.538 215.846 159.077 213.692 160.307C209.231 162.615 204.923 162.461 200.461 160.154C198.615 159.231 197.231 157.846 195.692 156.307C194.461 155.077 193.077 154 191.692 152.923C189.846 151.538 188 151.538 186 152.615C184.461 153.538 183.231 154.769 182 155.846C181.077 156.615 180.154 157.692 179.077 158.461C176.308 160.615 173.384 162 170 161.846Z" fill="white" fill-opacity="0.1"/>
</g>
<defs>
<linearGradient id="paint0_linear_1259_349" x1="1636.34" y1="132" x2="1636.34" y2="399.783" gradientUnits="userSpaceOnUse">
<stop stop-color="#D3D9FF"/>
<stop offset="1" stop-color="#32445B"/>
</linearGradient>
<clipPath id="clip0_1259_349">
<rect width="566.68" height="267.78" fill="white" transform="translate(1353 132)"/>
</clipPath>
<clipPath id="clip1_1259_349">
<rect width="140" height="140" fill="white" transform="translate(156 126)"/>
</clipPath>
</defs>
</svg>
