<svg width="1920" height="400" viewBox="0 0 1920 400" fill="none" xmlns="http://www.w3.org/2000/svg">
<g clip-path="url(#clip0_1337_349)">
<rect width="1920" height="400" fill="#2C3746"/>
<ellipse opacity="0.14" cx="1629.32" cy="206.566" rx="236.13" ry="248.504" transform="rotate(-30.863 1629.32 206.566)" fill="url(#paint0_radial_1337_349)"/>
<g opacity="0.6">
<g opacity="0.07">
<path d="M1804.66 1172.68V1030.59L1904.5 930.61V828.899L1809.48 733.785V405.102L1886.3 328.279V219.393H1891.52L1891.42 330.491L1814.7 407.364V731.617L1909.81 826.737L1909.72 932.771L1809.88 1032.75V1172.68H1804.66Z" fill="#8EDBDB"/>
<path d="M1735.22 417.788V194.749L1774.56 155.502L1774.46 -5.76416L1779.77 -5.71392V157.714L1740.53 196.916V415.576L1874.5 549.597V754.338L1967.75 847.542L1967.65 1095.17L1926.14 1136.78V1177.9H1920.83V1134.56L1962.43 1093.01V849.703L1869.19 756.506L1869.29 551.758L1735.22 417.788Z" fill="#8EDBDB"/>
<path d="M1421.04 884.57V793.686L1514.39 700.238V581.517L1778.01 317.949V221.208H1783.22V320.067L1519.61 583.578V702.405L1426.26 795.797V884.57H1421.04Z" fill="#8EDBDB"/>
<path d="M1518.92 914.675V821.522L1718.2 622.335V493.429L1622.59 397.919V84.5359L1569.38 31.321V-44.1753H1579.9V26.9414L1633.12 80.2569V393.59L1728.73 489.15V626.664L1529.44 825.801V910.345L1572.13 952.985V1184.83L1561.6 1184.87V957.409L1518.92 914.675Z" fill="#8EDBDB"/>
<path d="M1544.1 794.327V450.298L1702.07 292.325V109.418L1712.6 109.469V296.705L1554.52 454.628V789.846L1628.3 863.671V1177.9L1617.77 1177.85V868.001L1544.1 794.327Z" fill="#8EDBDB"/>
<path d="M1507.31 72.0884V-44.1753H1512.62V69.9771L1590.33 147.635V371.315H1585.12V149.796L1507.31 72.0884Z" fill="#8EDBDB"/>
<path d="M1292.68 1102.16V702.009L1406.09 588.548V384.196L1486.36 303.931V222.836L1491.67 222.88V306.099L1411.4 386.364V590.666L1297.99 704.077V1099.94L1369.5 1171.6V1197.07H1364.29V1173.76L1292.68 1102.16Z" fill="#8EDBDB"/>
<path d="M1153 1035.86V698.472L1187.92 663.548V480.202L1427.04 241.077V-81.5053L1378.95 -129.65L1382.68 -133.344L1432.36 -83.7171V243.144L1193.13 482.414V665.716L1158.22 700.583L1158.32 1033.64L1184.48 1059.86V1191.86H1179.17V1062.07L1153 1035.86Z" fill="#8EDBDB"/>
<path d="M1374.71 431.706V154.817H1379.93V429.594L1481.25 530.809V893.964L1596.43 1009.2V1186.65H1591.21V1011.37L1475.93 896.182V533.021L1374.71 431.706Z" fill="#8EDBDB"/>
<path d="M1888.08 229.917C1882.27 229.968 1877.55 225.243 1877.55 219.393C1877.55 213.637 1882.27 208.968 1888.08 208.968C1893.78 208.968 1898.5 213.593 1898.5 219.393C1898.5 225.192 1893.78 229.917 1888.08 229.917Z" fill="#8EDBDB"/>
<path d="M1777.91 233.405C1772.2 233.405 1767.48 228.686 1767.58 222.88C1767.58 217.074 1772.2 212.355 1778 212.355C1783.81 212.405 1788.53 217.074 1788.53 222.83C1788.53 228.686 1783.81 233.405 1777.91 233.405Z" fill="#8EDBDB"/>
<path d="M1587.77 381.739C1581.97 381.84 1577.25 377.115 1577.25 371.315C1577.15 365.465 1581.97 360.84 1587.77 360.84C1593.57 360.84 1598.29 365.465 1598.29 371.315C1598.29 377.064 1593.57 381.79 1587.77 381.739Z" fill="#8EDBDB"/>
<path d="M1489.9 235.076C1484.1 235.076 1479.47 230.451 1479.47 224.652C1479.47 218.846 1484.1 214.227 1489.9 214.227C1495.7 214.177 1500.42 218.852 1500.42 224.652C1500.43 230.458 1495.7 235.076 1489.9 235.076Z" fill="#8EDBDB"/>
<path d="M1427.04 254.31C1421.34 254.36 1416.62 249.591 1416.62 243.886C1416.62 238.18 1421.24 233.411 1427.04 233.411C1432.85 233.411 1437.57 238.13 1437.57 243.936C1437.57 249.635 1432.85 254.36 1427.04 254.31Z" fill="#8EDBDB"/>
<path d="M1812.14 416.657C1806.24 416.657 1801.62 412.032 1801.62 406.182C1801.62 400.426 1806.24 395.808 1812.14 395.808C1817.85 395.808 1822.47 400.433 1822.56 406.232C1822.56 412.032 1817.85 416.657 1812.14 416.657Z" fill="#8EDBDB"/>
<path d="M1378.16 167.013C1372.46 167.013 1367.73 162.294 1367.73 156.589C1367.73 150.783 1372.36 146.114 1378.26 146.114C1383.96 146.064 1388.68 150.789 1388.68 156.589C1388.68 162.338 1383.96 167.063 1378.16 167.013Z" fill="#8EDBDB"/>
<path d="M1777.12 7.36809C1771.32 7.36809 1766.7 2.6429 1766.6 -3.15677C1766.6 -8.95645 1771.32 -13.6816 1777.12 -13.6816C1782.93 -13.6314 1787.55 -8.95645 1787.55 -3.15677C1787.55 2.59891 1782.92 7.36809 1777.12 7.36809Z" fill="#8EDBDB"/>
<path d="M1707.28 125.159C1699.02 125.109 1692.43 118.473 1692.43 110.305C1692.43 102.092 1699.01 95.501 1707.28 95.501C1715.44 95.501 1722.14 102.092 1722.14 110.305C1722.14 118.517 1715.45 125.109 1707.28 125.159Z" fill="#8EDBDB"/>
</g>
<g opacity="0.2">
<path d="M1748.7 1004.33L1748.79 899.28L1822.56 825.311L1822.66 750.16L1752.33 679.779V436.676L1809.09 379.873V299.312H1813.03V381.494L1756.17 438.297V678.208L1826.5 748.489V826.932L1752.63 900.901V1004.33H1748.7Z" fill="#8EDBDB"/>
<path d="M1697.45 446.07V281.065L1726.46 252.048L1726.56 132.781L1730.3 132.73V253.619L1701.29 282.686V444.398L1800.43 543.546V694.928L1869.38 763.883V947.035L1838.6 977.774V1008.22H1834.66V976.102L1865.45 945.414V765.454L1796.5 696.549V545.123L1697.45 446.07Z" fill="#8EDBDB"/>
<path d="M1465.01 791.273L1465.11 724.046L1534.06 654.896V567.103L1729.02 372.151V300.688H1732.95V373.772L1538 568.68V656.567L1468.95 725.617V791.273H1465.01Z" fill="#8EDBDB"/>
<path d="M1537.41 813.554V744.649L1684.85 597.301V502.037L1614.13 431.316V199.568L1574.79 160.177V104.354H1582.55V156.978L1621.91 196.376V428.168L1692.63 498.795V600.499L1545.18 747.847V810.312L1576.75 841.88V1013.38H1568.98V845.129L1537.41 813.554Z" fill="#8EDBDB"/>
<path d="M1556 724.486V470.067L1672.85 353.212V218.01L1680.63 217.966V356.411L1563.77 473.315V721.193L1618.36 775.784V1008.22L1610.59 1008.27V779.026L1556 724.486Z" fill="#8EDBDB"/>
<path d="M1528.85 190.375V104.354H1532.79V188.798L1590.23 246.242V411.642H1586.39V247.819L1528.85 190.375Z" fill="#8EDBDB"/>
<path d="M1370.1 952.149V656.221L1454 572.267V421.137L1513.41 361.871V301.819H1517.25V363.442L1457.93 422.758V573.845L1374.03 657.799V950.572L1426.95 1003.54L1426.85 1022.38L1423.02 1022.33V1005.07L1370.1 952.149Z" fill="#8EDBDB"/>
<path d="M1266.81 903.163V653.614L1292.58 627.845V492.203L1469.54 315.341V76.8134L1433.93 41.2048L1436.68 38.4526L1473.38 75.142V316.919L1296.51 493.824V629.416L1270.65 655.191V901.492L1290.02 920.87V1018.54H1286.19V922.541L1266.81 903.163Z" fill="#8EDBDB"/>
<path d="M1430.79 456.349V251.558H1434.61V454.772L1509.57 529.628V798.26L1594.76 883.439V1014.71H1590.92V885.016L1505.64 799.931L1505.73 531.249L1430.79 456.349Z" fill="#8EDBDB"/>
<path d="M1810.47 307.035C1806.14 307.085 1802.7 303.591 1802.7 299.312C1802.7 295.033 1806.14 291.59 1810.47 291.59C1814.6 291.59 1818.14 295.033 1818.14 299.312C1818.14 303.591 1814.6 307.079 1810.47 307.035Z" fill="#8EDBDB"/>
<path d="M1729.02 309.636C1724.79 309.636 1721.35 306.193 1721.35 301.864C1721.35 297.635 1724.79 294.091 1729.02 294.091C1733.35 294.091 1736.79 297.635 1736.79 301.864C1736.79 306.199 1733.35 309.636 1729.02 309.636Z" fill="#8EDBDB"/>
<path d="M1530.82 113.402C1526.59 113.402 1523.05 109.959 1523.05 105.63C1523.05 101.401 1526.59 97.9073 1530.82 97.9073C1535.14 97.857 1538.59 101.401 1538.59 105.63C1538.59 109.959 1535.14 113.402 1530.82 113.402Z" fill="#8EDBDB"/>
<path d="M1515.97 310.918C1511.64 310.918 1508.29 307.525 1508.29 303.196C1508.29 298.866 1511.74 295.423 1515.97 295.473C1520.3 295.473 1523.74 298.967 1523.74 303.196C1523.74 307.475 1520.3 310.918 1515.97 310.918Z" fill="#8EDBDB"/>
<path d="M1469.54 325.182C1465.22 325.232 1461.77 321.638 1461.77 317.459C1461.77 313.23 1465.21 309.643 1469.54 309.643C1473.77 309.643 1477.31 313.186 1477.31 317.51C1477.31 321.638 1473.77 325.182 1469.54 325.182Z" fill="#8EDBDB"/>
<path d="M1434.61 45.5845C1430.39 45.6348 1426.94 42.1412 1426.94 37.8621C1426.94 33.583 1430.38 30.0894 1434.61 30.0894C1438.94 30.0391 1442.39 33.583 1442.39 37.8621C1442.39 42.1412 1438.95 45.6285 1434.61 45.5845Z" fill="#8EDBDB"/>
<path d="M1433.34 260.556C1429.12 260.505 1425.67 257.112 1425.67 252.833C1425.67 248.504 1429.11 245.061 1433.34 245.111C1437.67 245.111 1441.11 248.605 1441.11 252.833C1441.11 257.112 1437.67 260.556 1433.34 260.556Z" fill="#8EDBDB"/>
<path d="M1728.43 142.47C1724.1 142.47 1720.56 138.976 1720.66 134.697C1720.66 130.468 1724.1 126.975 1728.43 126.975C1732.66 126.975 1736.1 130.418 1736.2 134.697C1736.1 138.976 1732.66 142.47 1728.43 142.47Z" fill="#8EDBDB"/>
<path d="M1676.79 229.572C1670.59 229.572 1665.77 224.702 1665.77 218.607C1665.77 212.556 1670.68 207.643 1676.69 207.643C1682.79 207.643 1687.71 212.563 1687.71 218.658C1687.71 224.702 1682.79 229.572 1676.79 229.572Z" fill="#8EDBDB"/>
<path d="M1577.94 113.993C1571.93 114.044 1567.01 109.124 1567.01 103.073C1567.01 96.9713 1571.93 92.1079 1577.94 92.1079C1584.04 92.1079 1588.96 96.9776 1588.96 103.073C1588.95 109.124 1584.03 114.044 1577.94 113.993Z" fill="#8EDBDB"/>
</g>
<path d="M1728.53 943.692L1728.63 851.915L1793.15 787.39V721.683L1731.68 660.306V448.037L1781.35 398.46L1781.25 328.129H1784.69V399.836L1735.12 449.514V658.93L1796.5 720.358V788.766L1731.97 853.392V943.692H1728.53Z" fill="#8EDBDB"/>
<path d="M1683.77 456.199V312.194L1709.15 286.821V182.704H1712.5V288.292L1687.22 313.576L1687.12 454.823L1773.68 541.385V673.583L1833.87 733.685V893.575L1807.02 920.425V947.035H1803.68V919.099L1830.53 892.243V735.212L1770.23 674.96L1770.33 542.761L1683.77 456.199Z" fill="#8EDBDB"/>
<path d="M1480.85 757.638V698.962L1541.15 638.565V561.944L1711.31 391.674L1711.41 329.31L1714.76 329.26V393.1L1544.59 563.32V640.042L1484.29 700.338V757.688L1480.85 757.638Z" fill="#8EDBDB"/>
<path d="M1544.1 777.01V716.914L1672.75 588.303V505.085L1611.08 443.412V241.033L1576.65 206.65V157.865H1583.45V203.847L1617.87 238.224L1617.77 440.559L1679.55 502.333V591.056L1550.88 719.717V774.257L1578.43 801.798V951.559H1571.74L1571.64 804.701L1544.1 777.01Z" fill="#8EDBDB"/>
<path d="M1560.33 699.352V477.299L1662.33 375.299V257.113L1669.12 257.062V378.001L1567.11 480.007V696.505L1614.72 744.109V947.035H1607.93V746.962L1560.33 699.352Z" fill="#8EDBDB"/>
<path d="M1536.62 233.015V157.814L1540.06 157.915V231.639L1590.23 281.75V426.151L1586.79 426.202V283.177L1536.62 233.015Z" fill="#8EDBDB"/>
<path d="M1398.03 898.099V639.746L1471.3 566.468V434.559L1523.14 382.726V330.347L1526.49 330.441V384.102L1474.65 435.935V567.844L1401.37 641.122V896.817L1447.6 943.001V959.426H1444.16L1444.26 944.377L1398.03 898.099Z" fill="#8EDBDB"/>
<path d="M1307.73 855.358L1307.83 637.484L1330.35 614.958V496.527L1484.78 342.097V133.767L1453.7 102.683L1456.16 100.32L1488.23 132.385L1488.12 343.479L1333.69 497.909V616.334L1311.17 638.81V853.882L1328.09 870.803V956.083H1324.75V872.28L1307.73 855.358Z" fill="#8EDBDB"/>
<path d="M1450.95 465.247V286.425H1454.39V463.871L1519.7 529.188L1519.8 763.682L1594.16 838.148V952.74H1590.82V839.524L1516.36 765.109V530.659L1450.95 465.247Z" fill="#8EDBDB"/>
<path d="M1782.43 334.921C1778.69 334.921 1775.65 331.874 1775.65 328.135C1775.65 324.396 1778.69 321.399 1782.43 321.349C1786.17 321.349 1789.22 324.396 1789.22 328.135C1789.22 331.867 1786.17 334.965 1782.43 334.921Z" fill="#8EDBDB"/>
<path d="M1711.42 337.183C1707.68 337.183 1704.63 334.136 1704.63 330.397C1704.63 326.658 1707.68 323.611 1711.42 323.611C1715.15 323.611 1718.2 326.658 1718.2 330.397C1718.2 334.129 1715.15 337.183 1711.42 337.183Z" fill="#8EDBDB"/>
<path d="M1538.29 165.782C1534.66 165.782 1531.61 162.778 1531.61 158.996C1531.61 155.307 1534.66 152.26 1538.29 152.209C1542.13 152.209 1545.08 155.307 1545.08 159.046C1545.08 162.785 1542.13 165.782 1538.29 165.782Z" fill="#8EDBDB"/>
<path d="M1525.41 338.264C1521.57 338.264 1518.62 335.217 1518.62 331.478C1518.62 327.739 1521.67 324.792 1525.41 324.742C1529.05 324.792 1532.2 327.695 1532.2 331.478C1532.19 335.21 1529.15 338.264 1525.41 338.264Z" fill="#8EDBDB"/>
<path d="M1484.78 350.655C1481.14 350.655 1478 347.607 1478.1 343.969C1478 340.231 1481.05 337.183 1484.78 337.183C1488.52 337.183 1491.57 340.231 1491.57 343.969C1491.57 347.607 1488.52 350.655 1484.78 350.655Z" fill="#8EDBDB"/>
<path d="M1454.39 106.616C1450.65 106.616 1447.6 103.569 1447.6 99.8303C1447.6 96.0414 1450.66 93.0441 1454.39 93.0944C1458.13 93.0944 1461.17 96.0917 1461.17 99.8303C1461.18 103.519 1458.03 106.616 1454.39 106.616Z" fill="#8EDBDB"/>
<path d="M1453.21 294.292C1449.48 294.292 1446.53 291.245 1446.43 287.506C1446.43 283.767 1449.58 280.814 1453.21 280.814C1456.95 280.814 1460 283.767 1460 287.506C1459.99 291.245 1456.95 294.292 1453.21 294.292Z" fill="#8EDBDB"/>
<path d="M1710.82 191.161C1707.09 191.161 1704.04 188.063 1704.04 184.375C1704.04 180.636 1707.09 177.639 1710.82 177.639C1714.56 177.639 1717.61 180.636 1717.61 184.375C1717.61 188.113 1714.56 191.161 1710.82 191.161Z" fill="#8EDBDB"/>
<path d="M1665.77 267.242C1660.46 267.242 1656.13 262.963 1656.13 257.653C1656.13 252.394 1660.36 248.064 1665.77 248.064C1671.08 248.064 1675.31 252.444 1675.31 257.653C1675.31 263.013 1671.08 267.242 1665.77 267.242Z" fill="#8EDBDB"/>
<path d="M1579.51 166.322C1574.2 166.322 1569.97 162.043 1569.97 156.778C1569.97 151.518 1574.2 147.239 1579.51 147.189C1584.83 147.239 1589.05 151.468 1589.05 156.778C1589.05 162.043 1584.72 166.322 1579.51 166.322Z" fill="#8EDBDB"/>
<path d="M1783.81 312.64C1792.56 312.64 1799.74 319.822 1799.74 328.575C1799.74 337.328 1792.56 344.51 1783.81 344.51C1775.06 344.51 1767.87 337.378 1767.87 328.575C1767.87 319.822 1775.06 312.64 1783.81 312.64ZM1783.91 315.392C1776.53 315.342 1770.63 321.292 1770.73 328.575C1770.63 335.851 1776.53 341.801 1783.81 341.801C1791.08 341.801 1796.99 335.851 1796.99 328.524C1796.99 321.292 1791.09 315.392 1783.91 315.392Z" fill="#8EDBDB"/>
<path d="M1524.91 314.456C1533.67 314.456 1540.85 321.638 1540.85 330.391C1540.85 339.194 1533.67 346.325 1524.91 346.325C1516.16 346.325 1508.98 339.194 1508.98 330.391C1508.98 321.638 1516.16 314.456 1524.91 314.456ZM1524.91 317.264C1517.64 317.164 1511.73 323.07 1511.73 330.447C1511.73 337.679 1517.63 343.63 1524.91 343.63C1532.19 343.63 1538.1 337.679 1538.1 330.397C1538.1 323.114 1532.19 317.214 1524.91 317.264Z" fill="#8EDBDB"/>
<path d="M1455.67 83.1094C1464.42 83.1094 1471.61 90.2915 1471.61 99.0444C1471.61 107.797 1464.42 114.979 1455.67 114.979C1446.92 114.979 1439.74 107.797 1439.74 99.0444C1439.74 90.2852 1446.92 83.1094 1455.67 83.1094ZM1455.67 85.8616C1448.4 85.8616 1442.49 91.7618 1442.49 99.0444C1442.49 106.321 1448.39 112.277 1455.67 112.277C1462.95 112.277 1468.85 106.327 1468.85 99.0004C1468.85 91.7618 1462.95 85.8616 1455.67 85.8616Z" fill="#8EDBDB"/>
<path d="M1453.31 270.346C1462.07 270.346 1469.24 277.578 1469.24 286.331C1469.24 295.184 1462.07 302.266 1453.31 302.266C1444.56 302.266 1437.37 295.134 1437.37 286.281C1437.37 277.572 1444.56 270.346 1453.31 270.346ZM1453.31 273.148C1446.13 273.148 1440.13 279.048 1440.13 286.331C1440.13 293.607 1446.13 299.564 1453.31 299.564C1460.59 299.564 1466.49 293.613 1466.49 286.331C1466.48 278.998 1460.59 273.148 1453.31 273.148Z" fill="#8EDBDB"/>
<path d="M1537.51 146.058C1544.98 146.058 1551.08 152.159 1551.08 159.63C1551.08 167.158 1544.98 173.202 1537.51 173.202C1530.04 173.202 1523.93 167.101 1523.93 159.63C1523.93 152.159 1530.04 146.058 1537.51 146.058ZM1537.51 148.42C1531.31 148.42 1526.29 153.39 1526.39 159.636C1526.29 165.832 1531.31 170.896 1537.51 170.852C1543.7 170.903 1548.72 165.838 1548.72 159.636C1548.72 153.441 1543.7 148.42 1537.51 148.42Z" fill="#8EDBDB"/>
<path d="M1711.42 170.406C1718.89 170.457 1724.99 176.552 1724.99 184.029C1724.99 191.506 1718.89 197.551 1711.42 197.601C1703.94 197.601 1697.84 191.5 1697.84 184.029C1697.84 176.552 1703.94 170.457 1711.42 170.406ZM1711.42 172.769C1705.31 172.819 1700.21 177.884 1700.21 184.029C1700.21 190.224 1705.22 195.289 1711.42 195.289C1717.61 195.289 1722.63 190.224 1722.63 184.029C1722.63 177.833 1717.61 172.813 1711.42 172.769Z" fill="#8EDBDB"/>
<path d="M1712.2 316.033C1719.68 316.033 1725.77 322.134 1725.87 329.605C1725.77 337.082 1719.68 343.177 1712.3 343.177C1704.72 343.177 1698.63 337.076 1698.63 329.605C1698.63 322.134 1704.72 316.083 1712.2 316.033ZM1712.2 318.395C1706.01 318.395 1700.99 323.41 1700.99 329.611C1700.99 335.807 1706 340.871 1712.2 340.871C1718.4 340.871 1723.42 335.757 1723.42 329.611C1723.42 323.41 1718.4 318.395 1712.2 318.395Z" fill="#8EDBDB"/>
<path d="M1665.77 235.818C1677.58 235.767 1687.22 245.406 1687.22 257.213C1687.22 269.02 1677.58 278.659 1665.77 278.659C1653.96 278.659 1644.33 269.02 1644.33 257.213C1644.33 245.406 1653.97 235.767 1665.77 235.818ZM1665.77 239.456C1656.03 239.456 1648.06 247.423 1648.06 257.163C1648.06 267.047 1656.03 275.014 1665.77 275.014C1675.6 274.964 1683.57 266.996 1683.57 257.213C1683.58 247.423 1675.61 239.456 1665.77 239.456Z" fill="#8EDBDB"/>
<path d="M1578.43 135.828C1590.23 135.828 1599.87 145.467 1599.87 157.318C1599.87 169.074 1590.23 178.713 1578.43 178.713C1566.62 178.713 1556.98 169.074 1556.98 157.267C1556.98 145.467 1566.62 135.828 1578.43 135.828ZM1578.43 139.517C1568.69 139.517 1560.62 147.484 1560.72 157.274C1560.62 167.063 1568.59 175.075 1578.43 175.075C1588.26 175.075 1596.23 167.057 1596.13 157.274C1596.23 147.484 1588.16 139.517 1578.43 139.517Z" fill="#8EDBDB"/>
</g>
<ellipse opacity="0.1" cx="381.959" cy="129.614" rx="255.912" ry="207.286" transform="rotate(-47.213 381.959 129.614)" fill="url(#paint1_radial_1337_349)"/>
<ellipse opacity="0.1" cx="106.832" cy="415.351" rx="119.718" ry="144.383" transform="rotate(-30.863 106.832 415.351)" fill="url(#paint2_radial_1337_349)"/>
</g>
<defs>
<radialGradient id="paint0_radial_1337_349" cx="0" cy="0" r="1" gradientUnits="userSpaceOnUse" gradientTransform="translate(1629.32 206.566) rotate(90) scale(248.504 236.13)">
<stop stop-color="#66FFE6"/>
<stop offset="1" stop-color="#2C3746"/>
</radialGradient>
<radialGradient id="paint1_radial_1337_349" cx="0" cy="0" r="1" gradientUnits="userSpaceOnUse" gradientTransform="translate(381.959 129.614) rotate(90) scale(207.287 255.912)">
<stop stop-color="#66FFE6"/>
<stop offset="1" stop-color="#2C3746"/>
</radialGradient>
<radialGradient id="paint2_radial_1337_349" cx="0" cy="0" r="1" gradientUnits="userSpaceOnUse" gradientTransform="translate(106.832 415.351) rotate(90) scale(144.383 119.718)">
<stop stop-color="#66FFE6"/>
<stop offset="1" stop-color="#2C3746"/>
</radialGradient>
<clipPath id="clip0_1337_349">
<rect width="1920" height="400" fill="white"/>
</clipPath>
</defs>
</svg>
